<svg width="170" height="170" viewBox="0 0 170 170" fill="none" xmlns="http://www.w3.org/2000/svg">
<path d="M43.3798 44.0838C43.3372 43.6541 43.1543 43.3203 42.8311 43.0824C42.508 42.8445 42.0694 42.7255 41.5154 42.7255C41.139 42.7255 40.8212 42.7788 40.562 42.8853C40.3027 42.9883 40.1039 43.1321 39.9654 43.3168C39.8304 43.5014 39.763 43.7109 39.763 43.9453C39.7559 44.1406 39.7967 44.3111 39.8855 44.4567C39.9778 44.6023 40.1039 44.7283 40.2637 44.8349C40.4235 44.9379 40.6081 45.0284 40.8176 45.1065C41.0272 45.1811 41.2509 45.245 41.4888 45.2983L42.4689 45.5327C42.9448 45.6392 43.3816 45.7812 43.7793 45.9588C44.177 46.1364 44.5215 46.3548 44.8127 46.614C45.1039 46.8732 45.3294 47.1786 45.4892 47.5302C45.6525 47.8817 45.736 48.2848 45.7395 48.7393C45.736 49.407 45.5655 49.9858 45.2282 50.4759C44.8944 50.9624 44.4114 51.3406 43.7793 51.6104C43.1507 51.8768 42.3926 52.0099 41.5048 52.0099C40.6241 52.0099 39.8571 51.875 39.2037 51.6051C38.5538 51.3352 38.046 50.9357 37.6802 50.4066C37.318 49.8739 37.128 49.2152 37.1103 48.4304H39.3422C39.367 48.7962 39.4718 49.1016 39.6564 49.3466C39.8446 49.5881 40.095 49.771 40.4075 49.8952C40.7235 50.016 41.0804 50.0763 41.4782 50.0763C41.8688 50.0763 42.2079 50.0195 42.4956 49.9059C42.7868 49.7923 43.0123 49.6342 43.1721 49.4318C43.3319 49.2294 43.4118 48.9968 43.4118 48.734C43.4118 48.489 43.339 48.283 43.1934 48.1161C43.0513 47.9492 42.8418 47.8072 42.5648 47.69C42.2914 47.5728 41.9558 47.4663 41.5581 47.3704L40.3702 47.0721C39.4505 46.8484 38.7243 46.4986 38.1916 46.0227C37.6589 45.5469 37.3944 44.9059 37.3979 44.0998C37.3944 43.4393 37.5701 42.8622 37.9252 42.3686C38.2839 41.875 38.7757 41.4897 39.4007 41.2127C40.0257 40.9357 40.736 40.7972 41.5314 40.7972C42.3411 40.7972 43.0478 40.9357 43.6515 41.2127C44.2587 41.4897 44.731 41.875 45.0684 42.3686C45.4057 42.8622 45.5797 43.4339 45.5904 44.0838H43.3798ZM49.3044 49.5011L49.3097 46.7791H49.64L52.2607 43.6737H54.8655L51.3445 47.7859H50.8066L49.3044 49.5011ZM47.2483 51.8555V40.9464H49.5175V51.8555H47.2483ZM52.3619 51.8555L49.9543 48.2919L51.4671 46.6886L55.02 51.8555H52.3619ZM55.9788 51.8555V43.6737H58.248V51.8555H55.9788ZM57.1187 42.619C56.7813 42.619 56.4919 42.5071 56.2504 42.2834C56.0125 42.0561 55.8936 41.7844 55.8936 41.4684C55.8936 41.1559 56.0125 40.8878 56.2504 40.6641C56.4919 40.4368 56.7813 40.3232 57.1187 40.3232C57.4561 40.3232 57.7437 40.4368 57.9816 40.6641C58.2231 40.8878 58.3438 41.1559 58.3438 41.4684C58.3438 41.7844 58.2231 42.0561 57.9816 42.2834C57.7437 42.5071 57.4561 42.619 57.1187 42.619ZM62.3349 40.9464V51.8555H60.0657V40.9464H62.3349ZM66.4218 40.9464V51.8555H64.1526V40.9464H66.4218ZM75.0471 46.0067L72.9696 46.1346C72.9341 45.957 72.8578 45.7972 72.7406 45.6552C72.6234 45.5096 72.4689 45.3942 72.2772 45.3089C72.089 45.2202 71.8635 45.1758 71.6007 45.1758C71.2491 45.1758 70.9526 45.2504 70.7111 45.3995C70.4696 45.5451 70.3489 45.7404 70.3489 45.9854C70.3489 46.1808 70.427 46.3459 70.5833 46.4808C70.7395 46.6158 71.0076 46.7241 71.3876 46.8058L72.8684 47.104C73.6639 47.2674 74.2569 47.5302 74.6475 47.8924C75.0382 48.2546 75.2335 48.7305 75.2335 49.32C75.2335 49.8562 75.0755 50.3267 74.7594 50.7315C74.4469 51.1364 74.0172 51.4524 73.4703 51.6797C72.927 51.9034 72.3002 52.0153 71.59 52.0153C70.5069 52.0153 69.644 51.7898 69.0012 51.3388C68.362 50.8842 67.9874 50.2663 67.8773 49.4851L70.1092 49.3679C70.1767 49.6982 70.34 49.9503 70.5993 50.1243C70.8585 50.2947 71.1905 50.38 71.5953 50.38C71.9931 50.38 72.3127 50.3036 72.5542 50.1509C72.7992 49.9947 72.9235 49.794 72.927 49.549C72.9235 49.343 72.8365 49.1744 72.666 49.043C72.4956 48.908 72.2328 48.805 71.8777 48.734L70.4608 48.4517C69.6618 48.2919 69.0669 48.0149 68.6763 47.6207C68.2892 47.2266 68.0957 46.7241 68.0957 46.1133C68.0957 45.5877 68.2377 45.1349 68.5218 44.755C68.8095 44.375 69.2125 44.082 69.731 43.8761C70.253 43.6701 70.8638 43.5671 71.5634 43.5671C72.5968 43.5671 73.41 43.7855 74.003 44.2223C74.5996 44.6591 74.9476 45.2539 75.0471 46.0067ZM87.4103 44.4727C87.3358 44.2134 87.231 43.9844 87.0961 43.7855C86.9611 43.5831 86.796 43.4126 86.6007 43.2741C86.4089 43.1321 86.1887 43.0238 85.9402 42.9492C85.6951 42.8746 85.4235 42.8374 85.1252 42.8374C84.5676 42.8374 84.0776 42.9759 83.655 43.2528C83.236 43.5298 82.9093 43.9329 82.6749 44.462C82.4405 44.9876 82.3233 45.6303 82.3233 46.3903C82.3233 47.1502 82.4387 47.7965 82.6696 48.3292C82.9004 48.8619 83.2271 49.2685 83.6497 49.549C84.0723 49.826 84.5712 49.9645 85.1465 49.9645C85.6685 49.9645 86.1142 49.8722 86.4835 49.6875C86.8564 49.4993 87.1404 49.2347 87.3358 48.8938C87.5346 48.5529 87.6341 48.1499 87.6341 47.6847L88.1028 47.7539H85.2903V46.0174H89.8553V47.3917C89.8553 48.3505 89.6529 49.1744 89.248 49.8633C88.8432 50.5487 88.2857 51.0778 87.5755 51.4506C86.8652 51.82 86.052 52.0046 85.1358 52.0046C84.1131 52.0046 83.2147 51.7791 82.4405 51.3281C81.6664 50.8736 81.0627 50.229 80.6294 49.3945C80.1998 48.5565 79.9849 47.5621 79.9849 46.4116C79.9849 45.5273 80.1127 44.739 80.3684 44.0465C80.6277 43.3505 80.9899 42.761 81.4551 42.2781C81.9203 41.7951 82.4618 41.4276 83.0797 41.1754C83.6976 40.9233 84.367 40.7972 85.0879 40.7972C85.7058 40.7972 86.2811 40.8878 86.8137 41.0689C87.3464 41.2464 87.8187 41.4986 88.2306 41.8253C88.6461 42.152 88.9853 42.5408 89.248 42.9918C89.5108 43.4393 89.6795 43.9329 89.7541 44.4727H87.4103ZM91.5452 51.8555V43.6737H93.7451V45.1012H93.8303C93.9795 44.5934 94.2298 44.2099 94.5814 43.9506C94.933 43.6879 95.3378 43.5565 95.7959 43.5565C95.9095 43.5565 96.032 43.5636 96.1634 43.5778C96.2948 43.592 96.4102 43.6115 96.5097 43.6364V45.6499C96.4031 45.6179 96.2558 45.5895 96.0676 45.5646C95.8794 45.5398 95.7071 45.5273 95.5509 45.5273C95.2171 45.5273 94.9188 45.6001 94.656 45.7457C94.3968 45.8878 94.1908 46.0866 94.0381 46.3423C93.8889 46.598 93.8144 46.8928 93.8144 47.2266V51.8555H91.5452ZM100.999 52.0153C100.171 52.0153 99.4558 51.8395 98.8521 51.4879C98.252 51.1328 97.7885 50.6392 97.4618 50.0071C97.1351 49.3714 96.9718 48.6346 96.9718 47.7965C96.9718 46.9513 97.1351 46.2127 97.4618 45.5806C97.7885 44.945 98.252 44.4513 98.8521 44.0998C99.4558 43.7447 100.171 43.5671 100.999 43.5671C101.826 43.5671 102.54 43.7447 103.14 44.0998C103.744 44.4513 104.209 44.945 104.536 45.5806C104.862 46.2127 105.026 46.9513 105.026 47.7965C105.026 48.6346 104.862 49.3714 104.536 50.0071C104.209 50.6392 103.744 51.1328 103.14 51.4879C102.54 51.8395 101.826 52.0153 100.999 52.0153ZM101.009 50.2575C101.386 50.2575 101.7 50.1509 101.952 49.9379C102.204 49.7212 102.394 49.4265 102.522 49.0536C102.654 48.6808 102.719 48.2564 102.719 47.7805C102.719 47.3047 102.654 46.8803 102.522 46.5075C102.394 46.1346 102.204 45.8398 101.952 45.6232C101.7 45.4066 101.386 45.2983 101.009 45.2983C100.629 45.2983 100.31 45.4066 100.051 45.6232C99.7949 45.8398 99.6014 46.1346 99.47 46.5075C99.3422 46.8803 99.2782 47.3047 99.2782 47.7805C99.2782 48.2564 99.3422 48.6808 99.47 49.0536C99.6014 49.4265 99.7949 49.7212 100.051 49.9379C100.31 50.1509 100.629 50.2575 101.009 50.2575ZM107.91 51.8555L105.684 43.6737H107.979L109.247 49.1708H109.322L110.643 43.6737H112.896L114.238 49.1388H114.308L115.554 43.6737H117.844L115.623 51.8555H113.221L111.815 46.7099H111.713L110.307 51.8555H107.91ZM123.407 43.6737V45.3782H118.48V43.6737H123.407ZM119.598 41.7134H121.867V49.3413C121.867 49.5508 121.899 49.7141 121.963 49.8313C122.027 49.945 122.116 50.0249 122.23 50.071C122.347 50.1172 122.482 50.1403 122.634 50.1403C122.741 50.1403 122.848 50.1314 122.954 50.1136C123.061 50.0923 123.142 50.0763 123.199 50.0657L123.556 51.7543C123.442 51.7898 123.283 51.8306 123.077 51.8768C122.871 51.9265 122.62 51.9567 122.326 51.9673C121.779 51.9886 121.299 51.9158 120.887 51.7489C120.479 51.582 120.161 51.3228 119.934 50.9712C119.707 50.6197 119.595 50.1758 119.598 49.6396V41.7134ZM127.33 47.1254V51.8555H125.061V40.9464H127.266V45.1172H127.362C127.547 44.6342 127.845 44.256 128.257 43.9826C128.669 43.7056 129.185 43.5671 129.807 43.5671C130.375 43.5671 130.87 43.6914 131.293 43.94C131.719 44.185 132.049 44.5384 132.284 45C132.522 45.4581 132.639 46.0067 132.635 46.646V51.8555H130.366V47.0508C130.37 46.5465 130.242 46.1541 129.983 45.8736C129.727 45.593 129.368 45.4528 128.907 45.4528C128.598 45.4528 128.324 45.5185 128.086 45.6499C127.852 45.7812 127.667 45.973 127.532 46.2251C127.401 46.4737 127.334 46.7738 127.33 47.1254ZM12.2079 69.8555V58.9464H16.5119C17.3393 58.9464 18.0442 59.1044 18.6266 59.4205C19.209 59.733 19.6529 60.168 19.9583 60.7255C20.2672 61.2795 20.4217 61.9187 20.4217 62.6431C20.4217 63.3675 20.2654 64.0067 19.9529 64.5607C19.6404 65.1147 19.1877 65.5462 18.5946 65.8551C18.0051 66.1641 17.2914 66.3185 16.4533 66.3185H13.71V64.4702H16.0804C16.5243 64.4702 16.8901 64.3938 17.1777 64.2411C17.4689 64.0849 17.6855 63.87 17.8276 63.5966C17.9732 63.3196 18.046 63.0018 18.046 62.6431C18.046 62.2809 17.9732 61.9648 17.8276 61.695C17.6855 61.4215 17.4689 61.2102 17.1777 61.0611C16.8865 60.9084 16.5172 60.832 16.0698 60.832H14.5144V69.8555H12.2079ZM21.8772 69.8555V61.6737H24.0771V63.1012H24.1624C24.3115 62.5934 24.5619 62.2099 24.9134 61.9506C25.265 61.6879 25.6698 61.5565 26.1279 61.5565C26.2416 61.5565 26.3641 61.5636 26.4955 61.5778C26.6269 61.592 26.7423 61.6115 26.8417 61.6364V63.6499C26.7352 63.6179 26.5878 63.5895 26.3996 63.5646C26.2114 63.5398 26.0392 63.5273 25.8829 63.5273C25.5491 63.5273 25.2508 63.6001 24.988 63.7457C24.7288 63.8878 24.5228 64.0866 24.3701 64.3423C24.221 64.598 24.1464 64.8928 24.1464 65.2266V69.8555H21.8772ZM31.3308 70.0153C30.5034 70.0153 29.7878 69.8395 29.1841 69.4879C28.584 69.1328 28.1206 68.6392 27.7939 68.0071C27.4672 67.3714 27.3038 66.6346 27.3038 65.7965C27.3038 64.9513 27.4672 64.2127 27.7939 63.5806C28.1206 62.945 28.584 62.4513 29.1841 62.0998C29.7878 61.7447 30.5034 61.5671 31.3308 61.5671C32.1582 61.5671 32.872 61.7447 33.4721 62.0998C34.0758 62.4513 34.541 62.945 34.8677 63.5806C35.1944 64.2127 35.3578 64.9513 35.3578 65.7965C35.3578 66.6346 35.1944 67.3714 34.8677 68.0071C34.541 68.6392 34.0758 69.1328 33.4721 69.4879C32.872 69.8395 32.1582 70.0153 31.3308 70.0153ZM31.3414 68.2575C31.7179 68.2575 32.0321 68.1509 32.2843 67.9379C32.5364 67.7212 32.7264 67.4265 32.8542 67.0536C32.9856 66.6808 33.0513 66.2564 33.0513 65.7805C33.0513 65.3047 32.9856 64.8803 32.8542 64.5075C32.7264 64.1346 32.5364 63.8398 32.2843 63.6232C32.0321 63.4066 31.7179 63.2983 31.3414 63.2983C30.9615 63.2983 30.6419 63.4066 30.3826 63.6232C30.127 63.8398 29.9334 64.1346 29.802 64.5075C29.6742 64.8803 29.6103 65.3047 29.6103 65.7805C29.6103 66.2564 29.6742 66.6808 29.802 67.0536C29.9334 67.4265 30.127 67.7212 30.3826 67.9379C30.6419 68.1509 30.9615 68.2575 31.3414 68.2575ZM39.8482 69.9886C39.2267 69.9886 38.6639 69.8288 38.1596 69.5092C37.6589 69.1861 37.2612 68.712 36.9664 68.087C36.6752 67.4585 36.5297 66.6879 36.5297 65.7752C36.5297 64.8377 36.6806 64.0582 36.9824 63.4368C37.2843 62.8118 37.6855 62.3448 38.1863 62.0359C38.6905 61.7234 39.2427 61.5671 39.8429 61.5671C40.301 61.5671 40.6827 61.6452 40.9881 61.8015C41.2971 61.9542 41.5456 62.146 41.7338 62.3768C41.9256 62.604 42.0712 62.8278 42.1706 63.0479H42.2399V58.9464H44.5037V69.8555H42.2665V68.5451H42.1706C42.0641 68.7724 41.9132 68.9979 41.7179 69.2216C41.5261 69.4418 41.2757 69.6246 40.9668 69.7702C40.6614 69.9158 40.2885 69.9886 39.8482 69.9886ZM40.5673 68.1829C40.9331 68.1829 41.242 68.0835 41.4941 67.8846C41.7498 67.6822 41.9451 67.3999 42.0801 67.0376C42.2186 66.6754 42.2878 66.2511 42.2878 65.7646C42.2878 65.2781 42.2203 64.8555 42.0854 64.4968C41.9505 64.1381 41.7551 63.8612 41.4995 63.6658C41.2438 63.4705 40.9331 63.3729 40.5673 63.3729C40.1944 63.3729 39.8801 63.4741 39.6245 63.6765C39.3688 63.8789 39.1752 64.1594 39.0439 64.5181C38.9125 64.8768 38.8468 65.2923 38.8468 65.7646C38.8468 66.2404 38.9125 66.6612 39.0439 67.027C39.1788 67.3892 39.3723 67.6733 39.6245 67.8793C39.8801 68.0817 40.1944 68.1829 40.5673 68.1829ZM51.6162 66.3718V61.6737H53.8854V69.8555H51.7068V68.3693H51.6215C51.4369 68.8487 51.1297 69.234 50.7 69.5252C50.2739 69.8164 49.7536 69.962 49.1393 69.962C48.5924 69.962 48.1112 69.8377 47.6958 69.5891C47.2803 69.3406 46.9553 68.9872 46.721 68.5291C46.4901 68.071 46.373 67.5224 46.3694 66.8832V61.6737H48.6386V66.4783C48.6421 66.9613 48.7718 67.343 49.0274 67.6236C49.2831 67.9041 49.6258 68.0444 50.0555 68.0444C50.3289 68.0444 50.5846 67.9822 50.8225 67.858C51.0605 67.7301 51.2522 67.5419 51.3978 67.2933C51.547 67.0447 51.6198 66.7376 51.6162 66.3718ZM59.3972 70.0153C58.5591 70.0153 57.8382 69.8377 57.2346 69.4826C56.6344 69.1239 56.1728 68.6268 55.8496 67.9911C55.53 67.3555 55.3702 66.6239 55.3702 65.7965C55.3702 64.9585 55.5318 64.2234 55.8549 63.5913C56.1816 62.9556 56.6451 62.4602 57.2452 62.1051C57.8453 61.7464 58.5591 61.5671 59.3865 61.5671C60.1003 61.5671 60.7253 61.6967 61.2615 61.956C61.7978 62.2152 62.2221 62.5792 62.5346 63.0479C62.8471 63.5167 63.0194 64.0671 63.0513 64.6992H60.91C60.8496 64.2908 60.6898 63.9624 60.4306 63.7138C60.1749 63.4616 59.8393 63.3356 59.4238 63.3356C59.0723 63.3356 58.7651 63.4315 58.5023 63.6232C58.2431 63.8114 58.0407 64.0866 57.8951 64.4489C57.7495 64.8111 57.6767 65.2496 57.6767 65.7646C57.6767 66.2866 57.7477 66.7305 57.8897 67.0962C58.0353 67.462 58.2395 67.7408 58.5023 67.9325C58.7651 68.1243 59.0723 68.2202 59.4238 68.2202C59.6831 68.2202 59.9157 68.1669 60.1216 68.0604C60.3311 67.9538 60.5034 67.7994 60.6383 67.5969C60.7768 67.391 60.8674 67.1442 60.91 66.8565H63.0513C63.0158 67.4815 62.8453 68.032 62.54 68.5078C62.2381 68.9801 61.8208 69.3494 61.2882 69.6158C60.7555 69.8821 60.1252 70.0153 59.3972 70.0153ZM68.8561 61.6737V63.3782H63.9289V61.6737H68.8561ZM65.0475 59.7134H67.3167V67.3413C67.3167 67.5508 67.3486 67.7141 67.4126 67.8313C67.4765 67.945 67.5653 68.0249 67.6789 68.071C67.7961 68.1172 67.931 68.1403 68.0837 68.1403C68.1903 68.1403 68.2968 68.1314 68.4033 68.1136C68.5099 68.0923 68.5915 68.0763 68.6483 68.0657L69.0052 69.7543C68.8916 69.7898 68.7318 69.8306 68.5258 69.8768C68.3199 69.9265 68.0695 69.9567 67.7748 69.9673C67.2279 69.9886 66.7485 69.9158 66.3366 69.7489C65.9282 69.582 65.6104 69.3228 65.3831 68.9712C65.1558 68.6197 65.0439 68.1758 65.0475 67.6396V59.7134ZM70.3343 69.8555V61.6737H72.6034V69.8555H70.3343ZM71.4742 60.619C71.1368 60.619 70.8474 60.5071 70.6059 60.2834C70.368 60.0561 70.249 59.7844 70.249 59.4684C70.249 59.1559 70.368 58.8878 70.6059 58.6641C70.8474 58.4368 71.1368 58.3232 71.4742 58.3232C71.8115 58.3232 72.0992 58.4368 72.3371 58.6641C72.5786 58.8878 72.6993 59.1559 72.6993 59.4684C72.6993 59.7844 72.5786 60.0561 72.3371 60.2834C72.0992 60.5071 71.8115 60.619 71.4742 60.619ZM82.049 61.6737L79.1886 69.8555H76.6317L73.7713 61.6737H76.1683L77.8675 67.5277H77.9528L79.6467 61.6737H82.049ZM83.2102 69.8555V61.6737H85.4794V69.8555H83.2102ZM84.3501 60.619C84.0128 60.619 83.7234 60.5071 83.4819 60.2834C83.244 60.0561 83.125 59.7844 83.125 59.4684C83.125 59.1559 83.244 58.8878 83.4819 58.6641C83.7234 58.4368 84.0128 58.3232 84.3501 58.3232C84.6875 58.3232 84.9751 58.4368 85.2131 58.6641C85.4545 58.8878 85.5753 59.1559 85.5753 59.4684C85.5753 59.7844 85.4545 60.0561 85.2131 60.2834C84.9751 60.5071 84.6875 60.619 84.3501 60.619ZM91.6491 61.6737V63.3782H86.7219V61.6737H91.6491ZM87.8405 59.7134H90.1096V67.3413C90.1096 67.5508 90.1416 67.7141 90.2055 67.8313C90.2694 67.945 90.3582 68.0249 90.4719 68.071C90.589 68.1172 90.724 68.1403 90.8767 68.1403C90.9832 68.1403 91.0898 68.1314 91.1963 68.1136C91.3028 68.0923 91.3845 68.0763 91.4413 68.0657L91.7982 69.7543C91.6846 69.7898 91.5248 69.8306 91.3188 69.8768C91.1128 69.9265 90.8625 69.9567 90.5677 69.9673C90.0209 69.9886 89.5415 69.9158 89.1295 69.7489C88.7211 69.582 88.4033 69.3228 88.176 68.9712C87.9488 68.6197 87.8369 68.1758 87.8405 67.6396V59.7134ZM94.5281 72.9237C94.2405 72.9237 93.9706 72.9006 93.7185 72.8544C93.4699 72.8118 93.2639 72.7567 93.1006 72.6893L93.6119 70.9954C93.8783 71.0771 94.118 71.1214 94.3311 71.1286C94.5477 71.1357 94.7341 71.0859 94.8904 70.9794C95.0502 70.8729 95.1798 70.6918 95.2792 70.4361L95.4124 70.0898L92.4774 61.6737H94.8637L96.5576 67.6822H96.6428L98.3527 61.6737H100.755L97.575 70.7397C97.4223 71.18 97.2146 71.5636 96.9518 71.8903C96.6926 72.2205 96.3641 72.4744 95.9664 72.652C95.5686 72.8331 95.0892 72.9237 94.5281 72.9237ZM112.664 62.4727C112.59 62.2134 112.485 61.9844 112.35 61.7855C112.215 61.5831 112.05 61.4126 111.855 61.2741C111.663 61.1321 111.443 61.0238 111.194 60.9492C110.949 60.8746 110.677 60.8374 110.379 60.8374C109.822 60.8374 109.331 60.9759 108.909 61.2528C108.49 61.5298 108.163 61.9329 107.929 62.462C107.694 62.9876 107.577 63.6303 107.577 64.3903C107.577 65.1502 107.693 65.7965 107.923 66.3292C108.154 66.8619 108.481 67.2685 108.904 67.549C109.326 67.826 109.825 67.9645 110.4 67.9645C110.922 67.9645 111.368 67.8722 111.737 67.6875C112.11 67.4993 112.394 67.2347 112.59 66.8938C112.789 66.5529 112.888 66.1499 112.888 65.6847L113.357 65.7539H110.544V64.0174H115.109V65.3917C115.109 66.3505 114.907 67.1744 114.502 67.8633C114.097 68.5487 113.54 69.0778 112.829 69.4506C112.119 69.82 111.306 70.0046 110.39 70.0046C109.367 70.0046 108.469 69.7791 107.694 69.3281C106.92 68.8736 106.317 68.229 105.883 67.3945C105.454 66.5565 105.239 65.5621 105.239 64.4116C105.239 63.5273 105.367 62.739 105.622 62.0465C105.882 61.3505 106.244 60.761 106.709 60.2781C107.174 59.7951 107.716 59.4276 108.334 59.1754C108.952 58.9233 109.621 58.7972 110.342 58.7972C110.96 58.7972 111.535 58.8878 112.068 59.0689C112.6 59.2464 113.073 59.4986 113.485 59.8253C113.9 60.152 114.239 60.5408 114.502 60.9918C114.765 61.4393 114.933 61.9329 115.008 62.4727H112.664ZM116.799 69.8555V61.6737H118.999V63.1012H119.084C119.233 62.5934 119.484 62.2099 119.835 61.9506C120.187 61.6879 120.592 61.5565 121.05 61.5565C121.163 61.5565 121.286 61.5636 121.417 61.5778C121.549 61.592 121.664 61.6115 121.764 61.6364V63.6499C121.657 63.6179 121.51 63.5895 121.321 63.5646C121.133 63.5398 120.961 63.5273 120.805 63.5273C120.471 63.5273 120.173 63.6001 119.91 63.7457C119.651 63.8878 119.445 64.0866 119.292 64.3423C119.143 64.598 119.068 64.8928 119.068 65.2266V69.8555H116.799ZM126.253 70.0153C125.425 70.0153 124.71 69.8395 124.106 69.4879C123.506 69.1328 123.042 68.6392 122.716 68.0071C122.389 67.3714 122.226 66.6346 122.226 65.7965C122.226 64.9513 122.389 64.2127 122.716 63.5806C123.042 62.945 123.506 62.4513 124.106 62.0998C124.71 61.7447 125.425 61.5671 126.253 61.5671C127.08 61.5671 127.794 61.7447 128.394 62.0998C128.998 62.4513 129.463 62.945 129.79 63.5806C130.116 64.2127 130.28 64.9513 130.28 65.7965C130.28 66.6346 130.116 67.3714 129.79 68.0071C129.463 68.6392 128.998 69.1328 128.394 69.4879C127.794 69.8395 127.08 70.0153 126.253 70.0153ZM126.263 68.2575C126.64 68.2575 126.954 68.1509 127.206 67.9379C127.458 67.7212 127.648 67.4265 127.776 67.0536C127.907 66.6808 127.973 66.2564 127.973 65.7805C127.973 65.3047 127.907 64.8803 127.776 64.5075C127.648 64.1346 127.458 63.8398 127.206 63.6232C126.954 63.4066 126.64 63.2983 126.263 63.2983C125.883 63.2983 125.564 63.4066 125.305 63.6232C125.049 63.8398 124.855 64.1346 124.724 64.5075C124.596 64.8803 124.532 65.3047 124.532 65.7805C124.532 66.2564 124.596 66.6808 124.724 67.0536C124.855 67.4265 125.049 67.7212 125.305 67.9379C125.564 68.1509 125.883 68.2575 126.263 68.2575ZM133.164 69.8555L130.938 61.6737H133.233L134.501 67.1708H134.576L135.897 61.6737H138.15L139.492 67.1388H139.561L140.808 61.6737H143.098L140.877 69.8555H138.475L137.069 64.7099H136.967L135.561 69.8555H133.164ZM148.661 61.6737V63.3782H143.734V61.6737H148.661ZM144.852 59.7134H147.121V67.3413C147.121 67.5508 147.153 67.7141 147.217 67.8313C147.281 67.945 147.37 68.0249 147.484 68.071C147.601 68.1172 147.736 68.1403 147.888 68.1403C147.995 68.1403 148.101 68.1314 148.208 68.1136C148.315 68.0923 148.396 68.0763 148.453 68.0657L148.81 69.7543C148.696 69.7898 148.536 69.8306 148.331 69.8768C148.125 69.9265 147.874 69.9567 147.579 69.9673C147.033 69.9886 146.553 69.9158 146.141 69.7489C145.733 69.582 145.415 69.3228 145.188 68.9712C144.96 68.6197 144.849 68.1758 144.852 67.6396V59.7134ZM152.584 65.1254V69.8555H150.315V58.9464H152.52V63.1172H152.616C152.801 62.6342 153.099 62.256 153.511 61.9826C153.923 61.7056 154.439 61.5671 155.061 61.5671C155.629 61.5671 156.124 61.6914 156.547 61.94C156.973 62.185 157.303 62.5384 157.538 63C157.776 63.4581 157.893 64.0067 157.889 64.646V69.8555H155.62V65.0508C155.624 64.5465 155.496 64.1541 155.237 63.8736C154.981 63.593 154.622 63.4528 154.161 63.4528C153.852 63.4528 153.578 63.5185 153.34 63.6499C153.106 63.7812 152.921 63.973 152.786 64.2251C152.655 64.4737 152.587 64.7738 152.584 65.1254ZM27.2212 76.9464V87.8555H25.229L20.483 80.9893H20.4031V87.8555H18.0966V76.9464H20.1207L24.8295 83.8072H24.9254V76.9464H27.2212ZM32.8129 88.0153C31.9713 88.0153 31.2469 87.8448 30.6396 87.5039C30.036 87.1594 29.5708 86.6729 29.2441 86.0444C28.9173 85.4123 28.754 84.6648 28.754 83.8018C28.754 82.9602 28.9173 82.2216 29.2441 81.5859C29.5708 80.9503 30.0306 80.4549 30.6237 80.0998C31.2203 79.7447 31.9198 79.5671 32.7224 79.5671C33.2622 79.5671 33.7646 79.6541 34.2298 79.8281C34.6986 79.9986 35.107 80.256 35.455 80.6005C35.8066 80.945 36.08 81.3782 36.2753 81.9002C36.4706 82.4187 36.5683 83.0259 36.5683 83.7219V84.3452H29.6595V82.9389H34.4323C34.4323 82.6122 34.3612 82.3228 34.2192 82.0707C34.0771 81.8185 33.8801 81.6214 33.6279 81.4794C33.3794 81.3338 33.0899 81.261 32.7597 81.261C32.4152 81.261 32.1098 81.3409 31.8435 81.5007C31.5807 81.657 31.3747 81.8683 31.2256 82.1346C31.0764 82.3974 31.0001 82.6903 30.9965 83.0135V84.3505C30.9965 84.7553 31.0711 85.1051 31.2203 85.3999C31.373 85.6946 31.5878 85.9219 31.8648 86.0817C32.1418 86.2415 32.4703 86.3214 32.8502 86.3214C33.1024 86.3214 33.3332 86.2859 33.5427 86.2148C33.7522 86.1438 33.9316 86.0373 34.0807 85.8952C34.2298 85.7532 34.3435 85.5792 34.4216 85.3732L36.5203 85.5117C36.4138 86.016 36.1954 86.4563 35.8651 86.8327C35.5384 87.2056 35.1159 87.4968 34.5974 87.7063C34.0825 87.9123 33.4877 88.0153 32.8129 88.0153ZM42.401 79.6737V81.3782H37.4738V79.6737H42.401ZM38.5924 77.7134H40.8616V85.3413C40.8616 85.5508 40.8936 85.7141 40.9575 85.8313C41.0214 85.945 41.1102 86.0249 41.2238 86.071C41.341 86.1172 41.4759 86.1403 41.6286 86.1403C41.7352 86.1403 41.8417 86.1314 41.9482 86.1136C42.0548 86.0923 42.1365 86.0763 42.1933 86.0657L42.5502 87.7543C42.4365 87.7898 42.2767 87.8306 42.0708 87.8768C41.8648 87.9265 41.6144 87.9567 41.3197 87.9673C40.7728 87.9886 40.2934 87.9158 39.8815 87.7489C39.4731 87.582 39.1553 87.3228 38.928 86.9712C38.7007 86.6197 38.5889 86.1758 38.5924 85.6396V77.7134ZM48.7278 82.4755V84.2759H43.7527V82.4755H48.7278ZM50.5868 87.8555V86.4865L56.0307 78.848H50.5762V76.9464H58.9284V78.3153L53.4792 85.9538H58.9391V87.8555H50.5868ZM64.395 88.0153C63.5534 88.0153 62.8289 87.8448 62.2217 87.5039C61.618 87.1594 61.1528 86.6729 60.8261 86.0444C60.4994 85.4123 60.336 84.6648 60.336 83.8018C60.336 82.9602 60.4994 82.2216 60.8261 81.5859C61.1528 80.9503 61.6127 80.4549 62.2057 80.0998C62.8023 79.7447 63.5019 79.5671 64.3044 79.5671C64.8442 79.5671 65.3467 79.6541 65.8119 79.8281C66.2806 79.9986 66.689 80.256 67.037 80.6005C67.3886 80.945 67.662 81.3782 67.8573 81.9002C68.0526 82.4187 68.1503 83.0259 68.1503 83.7219V84.3452H61.2416V82.9389H66.0143C66.0143 82.6122 65.9433 82.3228 65.8012 82.0707C65.6592 81.8185 65.4621 81.6214 65.21 81.4794C64.9614 81.3338 64.672 81.261 64.3417 81.261C63.9972 81.261 63.6919 81.3409 63.4255 81.5007C63.1627 81.657 62.9568 81.8683 62.8076 82.1346C62.6585 82.3974 62.5821 82.6903 62.5786 83.0135V84.3505C62.5786 84.7553 62.6531 85.1051 62.8023 85.3999C62.955 85.6946 63.1698 85.9219 63.4468 86.0817C63.7238 86.2415 64.0523 86.3214 64.4323 86.3214C64.6844 86.3214 64.9152 86.2859 65.1247 86.2148C65.3343 86.1438 65.5136 86.0373 65.6627 85.8952C65.8119 85.7532 65.9255 85.5792 66.0036 85.3732L68.1024 85.5117C67.9958 86.016 67.7774 86.4563 67.4472 86.8327C67.1205 87.2056 66.6979 87.4968 66.1794 87.7063C65.6645 87.9123 65.0697 88.0153 64.395 88.0153ZM69.6311 87.8555V79.6737H71.8311V81.1012H71.9163C72.0654 80.5934 72.3158 80.2099 72.6673 79.9506C73.0189 79.6879 73.4237 79.5565 73.8818 79.5565C73.9955 79.5565 74.118 79.5636 74.2494 79.5778C74.3808 79.592 74.4962 79.6115 74.5956 79.6364V81.6499C74.4891 81.6179 74.3417 81.5895 74.1535 81.5646C73.9653 81.5398 73.7931 81.5273 73.6368 81.5273C73.303 81.5273 73.0047 81.6001 72.7419 81.7457C72.4827 81.8878 72.2767 82.0866 72.124 82.3423C71.9749 82.598 71.9003 82.8928 71.9003 83.2266V87.8555H69.6311ZM79.0847 88.0153C78.2573 88.0153 77.5417 87.8395 76.938 87.4879C76.3379 87.1328 75.8745 86.6392 75.5478 86.0071C75.2211 85.3714 75.0577 84.6346 75.0577 83.7965C75.0577 82.9513 75.2211 82.2127 75.5478 81.5806C75.8745 80.945 76.3379 80.4513 76.938 80.0998C77.5417 79.7447 78.2573 79.5671 79.0847 79.5671C79.9121 79.5671 80.6259 79.7447 81.226 80.0998C81.8297 80.4513 82.2949 80.945 82.6216 81.5806C82.9483 82.2127 83.1117 82.9513 83.1117 83.7965C83.1117 84.6346 82.9483 85.3714 82.6216 86.0071C82.2949 86.6392 81.8297 87.1328 81.226 87.4879C80.6259 87.8395 79.9121 88.0153 79.0847 88.0153ZM79.0953 86.2575C79.4718 86.2575 79.786 86.1509 80.0382 85.9379C80.2903 85.7212 80.4803 85.4265 80.6081 85.0536C80.7395 84.6808 80.8052 84.2564 80.8052 83.7805C80.8052 83.3047 80.7395 82.8803 80.6081 82.5075C80.4803 82.1346 80.2903 81.8398 80.0382 81.6232C79.786 81.4066 79.4718 81.2983 79.0953 81.2983C78.7154 81.2983 78.3958 81.4066 78.1365 81.6232C77.8809 81.8398 77.6873 82.1346 77.5559 82.5075C77.4281 82.8803 77.3642 83.3047 77.3642 83.7805C77.3642 84.2564 77.4281 84.6808 77.5559 85.0536C77.6873 85.4265 77.8809 85.7212 78.1365 85.9379C78.3958 86.1509 78.7154 86.2575 79.0953 86.2575ZM88.1015 87.8555V76.9464H92.4055C93.2329 76.9464 93.9378 77.1044 94.5202 77.4205C95.1025 77.733 95.5464 78.168 95.8518 78.7255C96.1608 79.2795 96.3153 79.9187 96.3153 80.6431C96.3153 81.3675 96.159 82.0067 95.8465 82.5607C95.534 83.1147 95.0812 83.5462 94.4882 83.8551C93.8987 84.1641 93.1849 84.3185 92.3469 84.3185H89.6036V82.4702H91.974C92.4179 82.4702 92.7836 82.3938 93.0713 82.2411C93.3625 82.0849 93.5791 81.87 93.7211 81.5966C93.8667 81.3196 93.9395 81.0018 93.9395 80.6431C93.9395 80.2809 93.8667 79.9648 93.7211 79.695C93.5791 79.4215 93.3625 79.2102 93.0713 79.0611C92.7801 78.9084 92.4108 78.832 91.9633 78.832H90.4079V87.8555H88.1015ZM97.7708 87.8555V79.6737H99.9707V81.1012H100.056C100.205 80.5934 100.455 80.2099 100.807 79.9506C101.159 79.6879 101.563 79.5565 102.021 79.5565C102.135 79.5565 102.258 79.5636 102.389 79.5778C102.52 79.592 102.636 79.6115 102.735 79.6364V81.6499C102.629 81.6179 102.481 81.5895 102.293 81.5646C102.105 81.5398 101.933 81.5273 101.776 81.5273C101.443 81.5273 101.144 81.6001 100.882 81.7457C100.622 81.8878 100.416 82.0866 100.264 82.3423C100.115 82.598 100.04 82.8928 100.04 83.2266V87.8555H97.7708ZM107.224 88.0153C106.397 88.0153 105.681 87.8395 105.078 87.4879C104.478 87.1328 104.014 86.6392 103.687 86.0071C103.361 85.3714 103.197 84.6346 103.197 83.7965C103.197 82.9513 103.361 82.2127 103.687 81.5806C104.014 80.945 104.478 80.4513 105.078 80.0998C105.681 79.7447 106.397 79.5671 107.224 79.5671C108.052 79.5671 108.766 79.7447 109.366 80.0998C109.969 80.4513 110.435 80.945 110.761 81.5806C111.088 82.2127 111.251 82.9513 111.251 83.7965C111.251 84.6346 111.088 85.3714 110.761 86.0071C110.435 86.6392 109.969 87.1328 109.366 87.4879C108.766 87.8395 108.052 88.0153 107.224 88.0153ZM107.235 86.2575C107.611 86.2575 107.926 86.1509 108.178 85.9379C108.43 85.7212 108.62 85.4265 108.748 85.0536C108.879 84.6808 108.945 84.2564 108.945 83.7805C108.945 83.3047 108.879 82.8803 108.748 82.5075C108.62 82.1346 108.43 81.8398 108.178 81.6232C107.926 81.4066 107.611 81.2983 107.235 81.2983C106.855 81.2983 106.535 81.4066 106.276 81.6232C106.021 81.8398 105.827 82.1346 105.696 82.5075C105.568 82.8803 105.504 83.3047 105.504 83.7805C105.504 84.2564 105.568 84.6808 105.696 85.0536C105.827 85.4265 106.021 85.7212 106.276 85.9379C106.535 86.1509 106.855 86.2575 107.235 86.2575ZM116.413 91.0941C115.678 91.0941 115.047 90.9929 114.522 90.7905C114 90.5916 113.584 90.32 113.275 89.9755C112.967 89.631 112.766 89.244 112.674 88.8143L114.772 88.532C114.836 88.6953 114.937 88.848 115.076 88.9901C115.214 89.1321 115.397 89.2457 115.625 89.331C115.855 89.4197 116.136 89.4641 116.466 89.4641C116.96 89.4641 117.366 89.3434 117.686 89.1019C118.009 88.864 118.171 88.4645 118.171 87.9034V86.4066H118.075C117.975 86.6339 117.826 86.8487 117.627 87.0511C117.429 87.2536 117.173 87.4187 116.86 87.5465C116.548 87.6744 116.175 87.7383 115.742 87.7383C115.127 87.7383 114.568 87.5962 114.064 87.3121C113.563 87.0245 113.164 86.5859 112.865 85.9964C112.571 85.4034 112.423 84.6541 112.423 83.7486C112.423 82.8217 112.574 82.0476 112.876 81.4261C113.178 80.8047 113.579 80.3395 114.08 80.0305C114.584 79.7216 115.136 79.5671 115.736 79.5671C116.195 79.5671 116.578 79.6452 116.887 79.8015C117.196 79.9542 117.445 80.146 117.633 80.3768C117.824 80.604 117.972 80.8278 118.075 81.0479H118.16V79.6737H120.413V87.9354C120.413 88.6314 120.243 89.2138 119.902 89.6825C119.561 90.1513 119.089 90.5028 118.485 90.7372C117.885 90.9751 117.194 91.0941 116.413 91.0941ZM116.461 86.0337C116.827 86.0337 117.136 85.9432 117.388 85.7621C117.643 85.5774 117.839 85.3146 117.974 84.9737C118.112 84.6293 118.181 84.2173 118.181 83.7379C118.181 83.2585 118.114 82.843 117.979 82.4915C117.844 82.1364 117.649 81.8612 117.393 81.6658C117.137 81.4705 116.827 81.3729 116.461 81.3729C116.088 81.3729 115.774 81.4741 115.518 81.6765C115.262 81.8754 115.069 82.1523 114.937 82.5075C114.806 82.8626 114.74 83.2727 114.74 83.7379C114.74 84.2102 114.806 84.6186 114.937 84.9631C115.072 85.304 115.266 85.5685 115.518 85.7567C115.774 85.9414 116.088 86.0337 116.461 86.0337ZM122.219 87.8555V79.6737H124.419V81.1012H124.504C124.653 80.5934 124.904 80.2099 125.255 79.9506C125.607 79.6879 126.012 79.5565 126.47 79.5565C126.583 79.5565 126.706 79.5636 126.837 79.5778C126.969 79.592 127.084 79.6115 127.184 79.6364V81.6499C127.077 81.6179 126.93 81.5895 126.741 81.5646C126.553 81.5398 126.381 81.5273 126.225 81.5273C125.891 81.5273 125.593 81.6001 125.33 81.7457C125.071 81.8878 124.865 82.0866 124.712 82.3423C124.563 82.598 124.488 82.8928 124.488 83.2266V87.8555H122.219ZM131.705 88.0153C130.863 88.0153 130.138 87.8448 129.531 87.5039C128.928 87.1594 128.462 86.6729 128.136 86.0444C127.809 85.4123 127.646 84.6648 127.646 83.8018C127.646 82.9602 127.809 82.2216 128.136 81.5859C128.462 80.9503 128.922 80.4549 129.515 80.0998C130.112 79.7447 130.811 79.5671 131.614 79.5671C132.154 79.5671 132.656 79.6541 133.121 79.8281C133.59 79.9986 133.999 80.256 134.347 80.6005C134.698 80.945 134.972 81.3782 135.167 81.9002C135.362 82.4187 135.46 83.0259 135.46 83.7219V84.3452H128.551V82.9389H133.324C133.324 82.6122 133.253 82.3228 133.111 82.0707C132.969 81.8185 132.772 81.6214 132.52 81.4794C132.271 81.3338 131.982 81.261 131.651 81.261C131.307 81.261 131.001 81.3409 130.735 81.5007C130.472 81.657 130.266 81.8683 130.117 82.1346C129.968 82.3974 129.892 82.6903 129.888 83.0135V84.3505C129.888 84.7553 129.963 85.1051 130.112 85.3999C130.265 85.6946 130.479 85.9219 130.756 86.0817C131.033 86.2415 131.362 86.3214 131.742 86.3214C131.994 86.3214 132.225 86.2859 132.434 86.2148C132.644 86.1438 132.823 86.0373 132.972 85.8952C133.121 85.7532 133.235 85.5792 133.313 85.3732L135.412 85.5117C135.305 86.016 135.087 86.4563 134.757 86.8327C134.43 87.2056 134.007 87.4968 133.489 87.7063C132.974 87.9123 132.379 88.0153 131.705 88.0153ZM143.748 82.0067L141.671 82.1346C141.635 81.957 141.559 81.7972 141.442 81.6552C141.325 81.5096 141.17 81.3942 140.978 81.3089C140.79 81.2202 140.565 81.1758 140.302 81.1758C139.95 81.1758 139.654 81.2504 139.412 81.3995C139.171 81.5451 139.05 81.7404 139.05 81.9854C139.05 82.1808 139.128 82.3459 139.284 82.4808C139.441 82.6158 139.709 82.7241 140.089 82.8058L141.57 83.104C142.365 83.2674 142.958 83.5302 143.349 83.8924C143.739 84.2546 143.935 84.7305 143.935 85.32C143.935 85.8562 143.777 86.3267 143.461 86.7315C143.148 87.1364 142.718 87.4524 142.172 87.6797C141.628 87.9034 141.001 88.0153 140.291 88.0153C139.208 88.0153 138.345 87.7898 137.702 87.3388C137.063 86.8842 136.689 86.2663 136.578 85.4851L138.81 85.3679C138.878 85.6982 139.041 85.9503 139.3 86.1243C139.56 86.2947 139.892 86.38 140.297 86.38C140.694 86.38 141.014 86.3036 141.255 86.1509C141.5 85.9947 141.625 85.794 141.628 85.549C141.625 85.343 141.538 85.1744 141.367 85.043C141.197 84.908 140.934 84.805 140.579 84.734L139.162 84.4517C138.363 84.2919 137.768 84.0149 137.377 83.6207C136.99 83.2266 136.797 82.7241 136.797 82.1133C136.797 81.5877 136.939 81.1349 137.223 80.755C137.511 80.375 137.914 80.082 138.432 79.8761C138.954 79.6701 139.565 79.5671 140.265 79.5671C141.298 79.5671 142.111 79.7855 142.704 80.2223C143.301 80.6591 143.649 81.2539 143.748 82.0067ZM152.171 82.0067L150.094 82.1346C150.058 81.957 149.982 81.7972 149.865 81.6552C149.747 81.5096 149.593 81.3942 149.401 81.3089C149.213 81.2202 148.987 81.1758 148.725 81.1758C148.373 81.1758 148.077 81.2504 147.835 81.3995C147.594 81.5451 147.473 81.7404 147.473 81.9854C147.473 82.1808 147.551 82.3459 147.707 82.4808C147.864 82.6158 148.132 82.7241 148.512 82.8058L149.992 83.104C150.788 83.2674 151.381 83.5302 151.772 83.8924C152.162 84.2546 152.358 84.7305 152.358 85.32C152.358 85.8562 152.199 86.3267 151.883 86.7315C151.571 87.1364 151.141 87.4524 150.594 87.6797C150.051 87.9034 149.424 88.0153 148.714 88.0153C147.631 88.0153 146.768 87.7898 146.125 87.3388C145.486 86.8842 145.111 86.2663 145.001 85.4851L147.233 85.3679C147.301 85.6982 147.464 85.9503 147.723 86.1243C147.983 86.2947 148.315 86.38 148.719 86.38C149.117 86.38 149.437 86.3036 149.678 86.1509C149.923 85.9947 150.047 85.794 150.051 85.549C150.047 85.343 149.96 85.1744 149.79 85.043C149.62 84.908 149.357 84.805 149.002 84.734L147.585 84.4517C146.786 84.2919 146.191 84.0149 145.8 83.6207C145.413 83.2266 145.22 82.7241 145.22 82.1133C145.22 81.5877 145.362 81.1349 145.646 80.755C145.934 80.375 146.337 80.082 146.855 79.8761C147.377 79.6701 147.988 79.5671 148.687 79.5671C149.721 79.5671 150.534 79.7855 151.127 80.2223C151.724 80.6591 152.072 81.2539 152.171 82.0067Z" fill="white"/>
<line x1="62.9736" y1="140.64" x2="62.9736" y2="100.516" stroke="white" stroke-width="2"/>
<line x1="63.9736" y1="139.64" x2="104.098" y2="139.64" stroke="white" stroke-width="2"/>
<line x1="105.098" y1="103.452" x2="105.098" y2="140.64" stroke="white" stroke-width="2"/>
<path d="M79.2899 119.668C79.7447 119.9 80.301 119.752 80.5805 119.325L87.4994 108.753C87.7755 108.331 88.3224 108.18 88.7754 108.402L95.5243 111.702C95.9268 111.899 96.411 111.804 96.7094 111.47L104.31 102.96C104.921 102.275 106.055 102.707 106.055 103.626V116.662C106.055 116.971 105.912 117.263 105.667 117.453L96.6788 124.399C96.387 124.625 95.9948 124.672 95.6583 124.521L88.6835 121.395C88.2701 121.209 87.7839 121.325 87.4983 121.677L80.5021 130.288C80.2514 130.597 79.8415 130.728 79.4583 130.621L73.5071 128.968C73.1126 128.858 72.6911 129 72.4433 129.326L65.1583 138.912C65.0335 139.076 64.8393 139.172 64.6332 139.172C64.2689 139.172 63.9736 138.877 63.9736 138.513V136.371C63.9736 136.23 64.0036 136.09 64.0615 135.961L72.4233 117.348C72.6575 116.827 73.2802 116.607 73.7894 116.867L79.2899 119.668Z" fill="white"/>
</svg>
