<svg width="1280" height="1280" viewBox="0 0 1280 1280" fill="none" xmlns="http://www.w3.org/2000/svg">
<circle cx="640.015" cy="640.014" r="85.1578" fill="#76C92E"/>
<path d="M598.38 599.084C598.337 598.654 598.154 598.32 597.831 598.082C597.508 597.844 597.069 597.725 596.515 597.725C596.139 597.725 595.821 597.779 595.562 597.885C595.303 597.988 595.104 598.132 594.965 598.317C594.83 598.501 594.763 598.711 594.763 598.945C594.756 599.141 594.797 599.311 594.885 599.457C594.978 599.602 595.104 599.728 595.264 599.835C595.423 599.938 595.608 600.028 595.818 600.107C596.027 600.181 596.251 600.245 596.489 600.298L597.469 600.533C597.945 600.639 598.382 600.781 598.779 600.959C599.177 601.136 599.521 601.355 599.813 601.614C600.104 601.873 600.329 602.179 600.489 602.53C600.653 602.882 600.736 603.285 600.74 603.739C600.736 604.407 600.566 604.986 600.228 605.476C599.894 605.962 599.411 606.341 598.779 606.61C598.151 606.877 597.393 607.01 596.505 607.01C595.624 607.01 594.857 606.875 594.204 606.605C593.554 606.335 593.046 605.936 592.68 605.407C592.318 604.874 592.128 604.215 592.11 603.43H594.342C594.367 603.796 594.472 604.102 594.656 604.347C594.845 604.588 595.095 604.771 595.407 604.895C595.724 605.016 596.08 605.076 596.478 605.076C596.869 605.076 597.208 605.02 597.496 604.906C597.787 604.792 598.012 604.634 598.172 604.432C598.332 604.229 598.412 603.997 598.412 603.734C598.412 603.489 598.339 603.283 598.193 603.116C598.051 602.949 597.842 602.807 597.565 602.69C597.291 602.573 596.956 602.466 596.558 602.37L595.37 602.072C594.45 601.848 593.724 601.499 593.192 601.023C592.659 600.547 592.394 599.906 592.398 599.1C592.394 598.439 592.57 597.862 592.925 597.369C593.284 596.875 593.776 596.49 594.401 596.213C595.026 595.936 595.736 595.797 596.531 595.797C597.341 595.797 598.048 595.936 598.651 596.213C599.259 596.49 599.731 596.875 600.068 597.369C600.406 597.862 600.58 598.434 600.59 599.084H598.38ZM604.304 604.501L604.31 601.779H604.64L607.261 598.674H609.866L606.345 602.786H605.807L604.304 604.501ZM602.248 606.855V595.946H604.517V606.855H602.248ZM607.362 606.855L604.954 603.292L606.467 601.689L610.02 606.855H607.362ZM610.979 606.855V598.674H613.248V606.855H610.979ZM612.119 597.619C611.781 597.619 611.492 597.507 611.25 597.283C611.013 597.056 610.894 596.784 610.894 596.468C610.894 596.156 611.013 595.888 611.25 595.664C611.492 595.437 611.781 595.323 612.119 595.323C612.456 595.323 612.744 595.437 612.982 595.664C613.223 595.888 613.344 596.156 613.344 596.468C613.344 596.784 613.223 597.056 612.982 597.283C612.744 597.507 612.456 597.619 612.119 597.619ZM617.335 595.946V606.855H615.066V595.946H617.335ZM621.422 595.946V606.855H619.153V595.946H621.422ZM630.047 601.007L627.97 601.135C627.934 600.957 627.858 600.797 627.741 600.655C627.623 600.51 627.469 600.394 627.277 600.309C627.089 600.22 626.863 600.176 626.601 600.176C626.249 600.176 625.953 600.25 625.711 600.4C625.47 600.545 625.349 600.74 625.349 600.985C625.349 601.181 625.427 601.346 625.583 601.481C625.74 601.616 626.008 601.724 626.388 601.806L627.868 602.104C628.664 602.267 629.257 602.53 629.648 602.892C630.038 603.255 630.233 603.73 630.233 604.32C630.233 604.856 630.075 605.327 629.759 605.732C629.447 606.136 629.017 606.452 628.47 606.68C627.927 606.903 627.3 607.015 626.59 607.015C625.507 607.015 624.644 606.79 624.001 606.339C623.362 605.884 622.987 605.266 622.877 604.485L625.109 604.368C625.177 604.698 625.34 604.95 625.599 605.124C625.858 605.295 626.191 605.38 626.595 605.38C626.993 605.38 627.313 605.304 627.554 605.151C627.799 604.995 627.923 604.794 627.927 604.549C627.923 604.343 627.836 604.174 627.666 604.043C627.496 603.908 627.233 603.805 626.878 603.734L625.461 603.452C624.662 603.292 624.067 603.015 623.676 602.621C623.289 602.227 623.096 601.724 623.096 601.113C623.096 600.588 623.238 600.135 623.522 599.755C623.809 599.375 624.213 599.082 624.731 598.876C625.253 598.67 625.864 598.567 626.563 598.567C627.597 598.567 628.41 598.786 629.003 599.222C629.6 599.659 629.948 600.254 630.047 601.007ZM642.41 599.473C642.336 599.213 642.231 598.984 642.096 598.786C641.961 598.583 641.796 598.413 641.601 598.274C641.409 598.132 641.189 598.024 640.94 597.949C640.695 597.875 640.423 597.837 640.125 597.837C639.568 597.837 639.078 597.976 638.655 598.253C638.236 598.53 637.909 598.933 637.675 599.462C637.441 599.988 637.323 600.63 637.323 601.39C637.323 602.15 637.439 602.797 637.67 603.329C637.9 603.862 638.227 604.268 638.65 604.549C639.072 604.826 639.571 604.964 640.146 604.964C640.669 604.964 641.114 604.872 641.483 604.688C641.856 604.499 642.14 604.235 642.336 603.894C642.535 603.553 642.634 603.15 642.634 602.685L643.103 602.754H640.29V601.017H644.855V602.392C644.855 603.35 644.653 604.174 644.248 604.863C643.843 605.549 643.286 606.078 642.575 606.451C641.865 606.82 641.052 607.005 640.136 607.005C639.113 607.005 638.215 606.779 637.441 606.328C636.666 605.874 636.063 605.229 635.629 604.395C635.2 603.556 634.985 602.562 634.985 601.412C634.985 600.527 635.113 599.739 635.368 599.047C635.628 598.35 635.99 597.761 636.455 597.278C636.92 596.795 637.462 596.428 638.08 596.175C638.698 595.923 639.367 595.797 640.088 595.797C640.706 595.797 641.281 595.888 641.814 596.069C642.346 596.246 642.819 596.499 643.231 596.825C643.646 597.152 643.985 597.541 644.248 597.992C644.511 598.439 644.68 598.933 644.754 599.473H642.41ZM646.545 606.855V598.674H648.745V600.101H648.83C648.979 599.593 649.23 599.21 649.581 598.951C649.933 598.688 650.338 598.556 650.796 598.556C650.91 598.556 651.032 598.564 651.163 598.578C651.295 598.592 651.41 598.612 651.51 598.636V600.65C651.403 600.618 651.256 600.589 651.068 600.565C650.879 600.54 650.707 600.527 650.551 600.527C650.217 600.527 649.919 600.6 649.656 600.746C649.397 600.888 649.191 601.087 649.038 601.342C648.889 601.598 648.814 601.893 648.814 602.227V606.855H646.545ZM655.999 607.015C655.171 607.015 654.456 606.839 653.852 606.488C653.252 606.133 652.789 605.639 652.462 605.007C652.135 604.371 651.972 603.635 651.972 602.797C651.972 601.951 652.135 601.213 652.462 600.581C652.789 599.945 653.252 599.451 653.852 599.1C654.456 598.745 655.171 598.567 655.999 598.567C656.826 598.567 657.54 598.745 658.14 599.1C658.744 599.451 659.209 599.945 659.536 600.581C659.862 601.213 660.026 601.951 660.026 602.797C660.026 603.635 659.862 604.371 659.536 605.007C659.209 605.639 658.744 606.133 658.14 606.488C657.54 606.839 656.826 607.015 655.999 607.015ZM656.009 605.257C656.386 605.257 656.7 605.151 656.952 604.938C657.204 604.721 657.394 604.426 657.522 604.054C657.654 603.681 657.719 603.256 657.719 602.781C657.719 602.305 657.654 601.88 657.522 601.507C657.394 601.135 657.204 600.84 656.952 600.623C656.7 600.407 656.386 600.298 656.009 600.298C655.629 600.298 655.31 600.407 655.051 600.623C654.795 600.84 654.601 601.135 654.47 601.507C654.342 601.88 654.278 602.305 654.278 602.781C654.278 603.256 654.342 603.681 654.47 604.054C654.601 604.426 654.795 604.721 655.051 604.938C655.31 605.151 655.629 605.257 656.009 605.257ZM662.91 606.855L660.684 598.674H662.979L664.247 604.171H664.322L665.643 598.674H667.896L669.238 604.139H669.308L670.554 598.674H672.844L670.623 606.855H668.221L666.815 601.71H666.713L665.307 606.855H662.91ZM678.407 598.674V600.378H673.48V598.674H678.407ZM674.598 596.713H676.867V604.341C676.867 604.551 676.899 604.714 676.963 604.831C677.027 604.945 677.116 605.025 677.23 605.071C677.347 605.117 677.482 605.14 677.634 605.14C677.741 605.14 677.848 605.131 677.954 605.114C678.061 605.092 678.142 605.076 678.199 605.066L678.556 606.754C678.442 606.79 678.283 606.831 678.077 606.877C677.871 606.926 677.62 606.957 677.326 606.967C676.779 606.989 676.299 606.916 675.887 606.749C675.479 606.582 675.161 606.323 674.934 605.971C674.707 605.62 674.595 605.176 674.598 604.64V596.713ZM682.33 602.125V606.855H680.061V595.946H682.266V600.117H682.362C682.547 599.634 682.845 599.256 683.257 598.983C683.669 598.706 684.185 598.567 684.807 598.567C685.375 598.567 685.87 598.691 686.293 598.94C686.719 599.185 687.049 599.538 687.284 600C687.522 600.458 687.639 601.007 687.635 601.646V606.855H685.366V602.051C685.37 601.547 685.242 601.154 684.983 600.874C684.727 600.593 684.368 600.453 683.907 600.453C683.598 600.453 683.324 600.518 683.086 600.65C682.852 600.781 682.667 600.973 682.532 601.225C682.401 601.474 682.334 601.774 682.33 602.125ZM567.208 624.855V613.946H571.512C572.339 613.946 573.044 614.104 573.627 614.42C574.209 614.733 574.653 615.168 574.958 615.725C575.267 616.279 575.422 616.919 575.422 617.643C575.422 618.368 575.265 619.007 574.953 619.561C574.64 620.115 574.188 620.546 573.595 620.855C573.005 621.164 572.291 621.319 571.453 621.319H568.71V619.47H571.08C571.524 619.47 571.89 619.394 572.178 619.241C572.469 619.085 572.686 618.87 572.828 618.597C572.973 618.32 573.046 618.002 573.046 617.643C573.046 617.281 572.973 616.965 572.828 616.695C572.686 616.422 572.469 616.21 572.178 616.061C571.887 615.908 571.517 615.832 571.07 615.832H569.514V624.855H567.208ZM576.877 624.855V616.674H579.077V618.101H579.162C579.312 617.593 579.562 617.21 579.913 616.951C580.265 616.688 580.67 616.556 581.128 616.556C581.242 616.556 581.364 616.564 581.495 616.578C581.627 616.592 581.742 616.612 581.842 616.636V618.65C581.735 618.618 581.588 618.589 581.4 618.565C581.211 618.54 581.039 618.527 580.883 618.527C580.549 618.527 580.251 618.6 579.988 618.746C579.729 618.888 579.523 619.087 579.37 619.342C579.221 619.598 579.146 619.893 579.146 620.227V624.855H576.877ZM586.331 625.015C585.503 625.015 584.788 624.839 584.184 624.488C583.584 624.133 583.121 623.639 582.794 623.007C582.467 622.371 582.304 621.635 582.304 620.797C582.304 619.951 582.467 619.213 582.794 618.581C583.121 617.945 583.584 617.451 584.184 617.1C584.788 616.745 585.503 616.567 586.331 616.567C587.158 616.567 587.872 616.745 588.472 617.1C589.076 617.451 589.541 617.945 589.868 618.581C590.194 619.213 590.358 619.951 590.358 620.797C590.358 621.635 590.194 622.371 589.868 623.007C589.541 623.639 589.076 624.133 588.472 624.488C587.872 624.839 587.158 625.015 586.331 625.015ZM586.341 623.257C586.718 623.257 587.032 623.151 587.284 622.938C587.536 622.721 587.726 622.426 587.854 622.054C587.986 621.681 588.051 621.256 588.051 620.781C588.051 620.305 587.986 619.88 587.854 619.507C587.726 619.135 587.536 618.84 587.284 618.623C587.032 618.407 586.718 618.298 586.341 618.298C585.961 618.298 585.642 618.407 585.383 618.623C585.127 618.84 584.933 619.135 584.802 619.507C584.674 619.88 584.61 620.305 584.61 620.781C584.61 621.256 584.674 621.681 584.802 622.054C584.933 622.426 585.127 622.721 585.383 622.938C585.642 623.151 585.961 623.257 586.341 623.257ZM594.848 624.989C594.227 624.989 593.664 624.829 593.16 624.509C592.659 624.186 592.261 623.712 591.966 623.087C591.675 622.458 591.53 621.688 591.53 620.775C591.53 619.838 591.681 619.058 591.982 618.437C592.284 617.812 592.686 617.345 593.186 617.036C593.691 616.723 594.243 616.567 594.843 616.567C595.301 616.567 595.683 616.645 595.988 616.801C596.297 616.954 596.546 617.146 596.734 617.377C596.926 617.604 597.071 617.828 597.171 618.048H597.24V613.946H599.504V624.855H597.267V623.545H597.171C597.064 623.772 596.913 623.998 596.718 624.222C596.526 624.442 596.276 624.625 595.967 624.77C595.661 624.916 595.289 624.989 594.848 624.989ZM595.567 623.183C595.933 623.183 596.242 623.083 596.494 622.885C596.75 622.682 596.945 622.4 597.08 622.038C597.219 621.675 597.288 621.251 597.288 620.765C597.288 620.278 597.22 619.855 597.085 619.497C596.95 619.138 596.755 618.861 596.499 618.666C596.244 618.471 595.933 618.373 595.567 618.373C595.194 618.373 594.88 618.474 594.624 618.676C594.369 618.879 594.175 619.159 594.044 619.518C593.912 619.877 593.847 620.292 593.847 620.765C593.847 621.24 593.912 621.661 594.044 622.027C594.179 622.389 594.372 622.673 594.624 622.879C594.88 623.082 595.194 623.183 595.567 623.183ZM606.616 621.372V616.674H608.885V624.855H606.707V623.369H606.622C606.437 623.849 606.13 624.234 605.7 624.525C605.274 624.816 604.754 624.962 604.139 624.962C603.592 624.962 603.111 624.838 602.696 624.589C602.28 624.341 601.955 623.987 601.721 623.529C601.49 623.071 601.373 622.522 601.369 621.883V616.674H603.639V621.478C603.642 621.961 603.772 622.343 604.027 622.624C604.283 622.904 604.626 623.044 605.055 623.044C605.329 623.044 605.585 622.982 605.823 622.858C606.06 622.73 606.252 622.542 606.398 622.293C606.547 622.045 606.62 621.738 606.616 621.372ZM614.397 625.015C613.559 625.015 612.838 624.838 612.235 624.483C611.634 624.124 611.173 623.627 610.85 622.991C610.53 622.355 610.37 621.624 610.37 620.797C610.37 619.958 610.532 619.223 610.855 618.591C611.182 617.956 611.645 617.46 612.245 617.105C612.845 616.746 613.559 616.567 614.387 616.567C615.1 616.567 615.725 616.697 616.262 616.956C616.798 617.215 617.222 617.579 617.535 618.048C617.847 618.517 618.019 619.067 618.051 619.699H615.91C615.85 619.291 615.69 618.962 615.431 618.714C615.175 618.462 614.839 618.336 614.424 618.336C614.072 618.336 613.765 618.431 613.502 618.623C613.243 618.811 613.041 619.087 612.895 619.449C612.749 619.811 612.677 620.25 612.677 620.765C612.677 621.287 612.748 621.73 612.89 622.096C613.035 622.462 613.24 622.741 613.502 622.933C613.765 623.124 614.072 623.22 614.424 623.22C614.683 623.22 614.916 623.167 615.122 623.06C615.331 622.954 615.503 622.799 615.638 622.597C615.777 622.391 615.867 622.144 615.91 621.857H618.051C618.016 622.482 617.845 623.032 617.54 623.508C617.238 623.98 616.821 624.349 616.288 624.616C615.756 624.882 615.125 625.015 614.397 625.015ZM623.856 616.674V618.378H618.929V616.674H623.856ZM620.047 614.713H622.317V622.341C622.317 622.551 622.349 622.714 622.413 622.831C622.476 622.945 622.565 623.025 622.679 623.071C622.796 623.117 622.931 623.14 623.084 623.14C623.19 623.14 623.297 623.131 623.403 623.114C623.51 623.092 623.592 623.076 623.648 623.066L624.005 624.754C623.892 624.79 623.732 624.831 623.526 624.877C623.32 624.926 623.07 624.957 622.775 624.967C622.228 624.989 621.748 624.916 621.337 624.749C620.928 624.582 620.61 624.323 620.383 623.971C620.156 623.62 620.044 623.176 620.047 622.64V614.713ZM625.334 624.855V616.674H627.603V624.855H625.334ZM626.474 615.619C626.137 615.619 625.847 615.507 625.606 615.283C625.368 615.056 625.249 614.784 625.249 614.468C625.249 614.156 625.368 613.888 625.606 613.664C625.847 613.437 626.137 613.323 626.474 613.323C626.812 613.323 627.099 613.437 627.337 613.664C627.579 613.888 627.699 614.156 627.699 614.468C627.699 614.784 627.579 615.056 627.337 615.283C627.099 615.507 626.812 615.619 626.474 615.619ZM637.049 616.674L634.189 624.855H631.632L628.771 616.674H631.168L632.868 622.528H632.953L634.647 616.674H637.049ZM638.21 624.855V616.674H640.479V624.855H638.21ZM639.35 615.619C639.013 615.619 638.723 615.507 638.482 615.283C638.244 615.056 638.125 614.784 638.125 614.468C638.125 614.156 638.244 613.888 638.482 613.664C638.723 613.437 639.013 613.323 639.35 613.323C639.688 613.323 639.975 613.437 640.213 613.664C640.455 613.888 640.575 614.156 640.575 614.468C640.575 614.784 640.455 615.056 640.213 615.283C639.975 615.507 639.688 615.619 639.35 615.619ZM646.649 616.674V618.378H641.722V616.674H646.649ZM642.84 614.713H645.11V622.341C645.11 622.551 645.142 622.714 645.206 622.831C645.269 622.945 645.358 623.025 645.472 623.071C645.589 623.117 645.724 623.14 645.877 623.14C645.983 623.14 646.09 623.131 646.196 623.114C646.303 623.092 646.384 623.076 646.441 623.066L646.798 624.754C646.685 624.79 646.525 624.831 646.319 624.877C646.113 624.926 645.862 624.957 645.568 624.967C645.021 624.989 644.541 624.916 644.13 624.749C643.721 624.582 643.403 624.323 643.176 623.971C642.949 623.62 642.837 623.176 642.84 622.64V614.713ZM649.528 627.924C649.241 627.924 648.971 627.901 648.718 627.854C648.47 627.812 648.264 627.757 648.101 627.689L648.612 625.995C648.878 626.077 649.118 626.121 649.331 626.129C649.548 626.136 649.734 626.086 649.89 625.979C650.05 625.873 650.18 625.692 650.279 625.436L650.412 625.09L647.477 616.674H649.864L651.558 622.682H651.643L653.353 616.674H655.755L652.575 625.74C652.422 626.18 652.215 626.564 651.952 626.89C651.693 627.221 651.364 627.474 650.966 627.652C650.569 627.833 650.089 627.924 649.528 627.924ZM667.664 617.473C667.59 617.213 667.485 616.984 667.35 616.786C667.215 616.583 667.05 616.413 666.855 616.274C666.663 616.132 666.443 616.024 666.194 615.949C665.949 615.875 665.677 615.837 665.379 615.837C664.822 615.837 664.331 615.976 663.909 616.253C663.49 616.53 663.163 616.933 662.929 617.462C662.694 617.988 662.577 618.63 662.577 619.39C662.577 620.15 662.693 620.797 662.923 621.329C663.154 621.862 663.481 622.268 663.904 622.549C664.326 622.826 664.825 622.964 665.4 622.964C665.922 622.964 666.368 622.872 666.737 622.688C667.11 622.499 667.394 622.235 667.59 621.894C667.789 621.553 667.888 621.15 667.888 620.685L668.357 620.754H665.544V619.017H670.109V620.392C670.109 621.35 669.907 622.174 669.502 622.863C669.097 623.549 668.54 624.078 667.829 624.451C667.119 624.82 666.306 625.005 665.39 625.005C664.367 625.005 663.469 624.779 662.694 624.328C661.92 623.874 661.317 623.229 660.883 622.395C660.454 621.556 660.239 620.562 660.239 619.412C660.239 618.527 660.367 617.739 660.622 617.047C660.882 616.35 661.244 615.761 661.709 615.278C662.174 614.795 662.716 614.428 663.334 614.175C663.952 613.923 664.621 613.797 665.342 613.797C665.96 613.797 666.535 613.888 667.068 614.069C667.6 614.246 668.073 614.499 668.485 614.825C668.9 615.152 669.239 615.541 669.502 615.992C669.765 616.439 669.933 616.933 670.008 617.473H667.664ZM671.799 624.855V616.674H673.999V618.101H674.084C674.233 617.593 674.484 617.21 674.835 616.951C675.187 616.688 675.592 616.556 676.05 616.556C676.163 616.556 676.286 616.564 676.417 616.578C676.549 616.592 676.664 616.612 676.764 616.636V618.65C676.657 618.618 676.51 618.589 676.321 618.565C676.133 618.54 675.961 618.527 675.805 618.527C675.471 618.527 675.173 618.6 674.91 618.746C674.651 618.888 674.445 619.087 674.292 619.342C674.143 619.598 674.068 619.893 674.068 620.227V624.855H671.799ZM681.253 625.015C680.425 625.015 679.71 624.839 679.106 624.488C678.506 624.133 678.042 623.639 677.716 623.007C677.389 622.371 677.226 621.635 677.226 620.797C677.226 619.951 677.389 619.213 677.716 618.581C678.042 617.945 678.506 617.451 679.106 617.1C679.71 616.745 680.425 616.567 681.253 616.567C682.08 616.567 682.794 616.745 683.394 617.1C683.998 617.451 684.463 617.945 684.79 618.581C685.116 619.213 685.28 619.951 685.28 620.797C685.28 621.635 685.116 622.371 684.79 623.007C684.463 623.639 683.998 624.133 683.394 624.488C682.794 624.839 682.08 625.015 681.253 625.015ZM681.263 623.257C681.64 623.257 681.954 623.151 682.206 622.938C682.458 622.721 682.648 622.426 682.776 622.054C682.907 621.681 682.973 621.256 682.973 620.781C682.973 620.305 682.907 619.88 682.776 619.507C682.648 619.135 682.458 618.84 682.206 618.623C681.954 618.407 681.64 618.298 681.263 618.298C680.883 618.298 680.564 618.407 680.305 618.623C680.049 618.84 679.855 619.135 679.724 619.507C679.596 619.88 679.532 620.305 679.532 620.781C679.532 621.256 679.596 621.681 679.724 622.054C679.855 622.426 680.049 622.721 680.305 622.938C680.564 623.151 680.883 623.257 681.263 623.257ZM688.164 624.855L685.938 616.674H688.233L689.501 622.171H689.576L690.897 616.674H693.15L694.492 622.139H694.561L695.808 616.674H698.098L695.877 624.855H693.475L692.069 619.71H691.967L690.561 624.855H688.164ZM703.661 616.674V618.378H698.734V616.674H703.661ZM699.852 614.713H702.121V622.341C702.121 622.551 702.153 622.714 702.217 622.831C702.281 622.945 702.37 623.025 702.484 623.071C702.601 623.117 702.736 623.14 702.888 623.14C702.995 623.14 703.101 623.131 703.208 623.114C703.315 623.092 703.396 623.076 703.453 623.066L703.81 624.754C703.696 624.79 703.536 624.831 703.331 624.877C703.125 624.926 702.874 624.957 702.579 624.967C702.033 624.989 701.553 624.916 701.141 624.749C700.733 624.582 700.415 624.323 700.188 623.971C699.96 623.62 699.849 623.176 699.852 622.64V614.713ZM707.584 620.125V624.855H705.315V613.946H707.52V618.117H707.616C707.801 617.634 708.099 617.256 708.511 616.983C708.923 616.706 709.439 616.567 710.061 616.567C710.629 616.567 711.124 616.691 711.547 616.94C711.973 617.185 712.303 617.538 712.538 618C712.776 618.458 712.893 619.007 712.889 619.646V624.855H710.62V620.051C710.624 619.547 710.496 619.154 710.237 618.874C709.981 618.593 709.622 618.453 709.161 618.453C708.852 618.453 708.578 618.518 708.34 618.65C708.106 618.781 707.921 618.973 707.786 619.225C707.655 619.474 707.587 619.774 707.584 620.125ZM582.221 631.946V642.855H580.229L575.483 635.989H575.403V642.855H573.097V631.946H575.121L579.83 638.807H579.925V631.946H582.221ZM587.813 643.015C586.971 643.015 586.247 642.845 585.64 642.504C585.036 642.159 584.571 641.673 584.244 641.044C583.917 640.412 583.754 639.665 583.754 638.802C583.754 637.96 583.917 637.222 584.244 636.586C584.571 635.95 585.031 635.455 585.624 635.1C586.22 634.745 586.92 634.567 587.722 634.567C588.262 634.567 588.765 634.654 589.23 634.828C589.699 634.999 590.107 635.256 590.455 635.6C590.807 635.945 591.08 636.378 591.275 636.9C591.471 637.419 591.568 638.026 591.568 638.722V639.345H584.66V637.939H589.432C589.432 637.612 589.361 637.323 589.219 637.071C589.077 636.819 588.88 636.621 588.628 636.479C588.379 636.334 588.09 636.261 587.76 636.261C587.415 636.261 587.11 636.341 586.843 636.501C586.581 636.657 586.375 636.868 586.226 637.135C586.076 637.397 586 637.69 585.997 638.013V639.35C585.997 639.755 586.071 640.105 586.22 640.4C586.373 640.695 586.588 640.922 586.865 641.082C587.142 641.241 587.47 641.321 587.85 641.321C588.102 641.321 588.333 641.286 588.543 641.215C588.752 641.144 588.932 641.037 589.081 640.895C589.23 640.753 589.343 640.579 589.422 640.373L591.52 640.512C591.414 641.016 591.195 641.456 590.865 641.833C590.538 642.206 590.116 642.497 589.597 642.706C589.082 642.912 588.488 643.015 587.813 643.015ZM597.401 634.674V636.378H592.474V634.674H597.401ZM593.592 632.713H595.862V640.341C595.862 640.551 595.894 640.714 595.957 640.831C596.021 640.945 596.11 641.025 596.224 641.071C596.341 641.117 596.476 641.14 596.629 641.14C596.735 641.14 596.842 641.131 596.948 641.114C597.055 641.092 597.136 641.076 597.193 641.066L597.55 642.754C597.437 642.79 597.277 642.831 597.071 642.877C596.865 642.926 596.614 642.957 596.32 642.967C595.773 642.989 595.293 642.916 594.881 642.749C594.473 642.582 594.155 642.323 593.928 641.971C593.701 641.62 593.589 641.176 593.592 640.64V632.713ZM603.728 637.475V639.276H598.753V637.475H603.728ZM605.587 642.855V641.487L611.031 633.848H605.576V631.946H613.928V633.315L608.479 640.954H613.939V642.855H605.587ZM619.395 643.015C618.553 643.015 617.829 642.845 617.222 642.504C616.618 642.159 616.153 641.673 615.826 641.044C615.499 640.412 615.336 639.665 615.336 638.802C615.336 637.96 615.499 637.222 615.826 636.586C616.153 635.95 616.613 635.455 617.206 635.1C617.802 634.745 618.502 634.567 619.304 634.567C619.844 634.567 620.347 634.654 620.812 634.828C621.281 634.999 621.689 635.256 622.037 635.6C622.389 635.945 622.662 636.378 622.857 636.9C623.053 637.419 623.15 638.026 623.15 638.722V639.345H616.242V637.939H621.014C621.014 637.612 620.943 637.323 620.801 637.071C620.659 636.819 620.462 636.621 620.21 636.479C619.961 636.334 619.672 636.261 619.342 636.261C618.997 636.261 618.692 636.341 618.426 636.501C618.163 636.657 617.957 636.868 617.808 637.135C617.658 637.397 617.582 637.69 617.579 638.013V639.35C617.579 639.755 617.653 640.105 617.802 640.4C617.955 640.695 618.17 640.922 618.447 641.082C618.724 641.241 619.052 641.321 619.432 641.321C619.684 641.321 619.915 641.286 620.125 641.215C620.334 641.144 620.514 641.037 620.663 640.895C620.812 640.753 620.926 640.579 621.004 640.373L623.102 640.512C622.996 641.016 622.777 641.456 622.447 641.833C622.12 642.206 621.698 642.497 621.179 642.706C620.665 642.912 620.07 643.015 619.395 643.015ZM624.631 642.855V634.674H626.831V636.101H626.916C627.065 635.593 627.316 635.21 627.667 634.951C628.019 634.688 628.424 634.556 628.882 634.556C628.995 634.556 629.118 634.564 629.249 634.578C629.381 634.592 629.496 634.612 629.596 634.636V636.65C629.489 636.618 629.342 636.589 629.153 636.565C628.965 636.54 628.793 636.527 628.637 636.527C628.303 636.527 628.005 636.6 627.742 636.746C627.483 636.888 627.277 637.087 627.124 637.342C626.975 637.598 626.9 637.893 626.9 638.227V642.855H624.631ZM634.085 643.015C633.257 643.015 632.542 642.839 631.938 642.488C631.338 642.133 630.874 641.639 630.548 641.007C630.221 640.371 630.058 639.635 630.058 638.797C630.058 637.951 630.221 637.213 630.548 636.581C630.874 635.945 631.338 635.451 631.938 635.1C632.542 634.745 633.257 634.567 634.085 634.567C634.912 634.567 635.626 634.745 636.226 635.1C636.83 635.451 637.295 635.945 637.622 636.581C637.948 637.213 638.112 637.951 638.112 638.797C638.112 639.635 637.948 640.371 637.622 641.007C637.295 641.639 636.83 642.133 636.226 642.488C635.626 642.839 634.912 643.015 634.085 643.015ZM634.095 641.257C634.472 641.257 634.786 641.151 635.038 640.938C635.29 640.721 635.48 640.426 635.608 640.054C635.74 639.681 635.805 639.256 635.805 638.781C635.805 638.305 635.74 637.88 635.608 637.507C635.48 637.135 635.29 636.84 635.038 636.623C634.786 636.407 634.472 636.298 634.095 636.298C633.715 636.298 633.396 636.407 633.137 636.623C632.881 636.84 632.687 637.135 632.556 637.507C632.428 637.88 632.364 638.305 632.364 638.781C632.364 639.256 632.428 639.681 632.556 640.054C632.687 640.426 632.881 640.721 633.137 640.938C633.396 641.151 633.715 641.257 634.095 641.257ZM643.101 642.855V631.946H647.405C648.233 631.946 648.938 632.104 649.52 632.42C650.103 632.733 650.546 633.168 650.852 633.725C651.161 634.279 651.315 634.919 651.315 635.643C651.315 636.368 651.159 637.007 650.847 637.561C650.534 638.115 650.081 638.546 649.488 638.855C648.899 639.164 648.185 639.319 647.347 639.319H644.604V637.47H646.974C647.418 637.47 647.784 637.394 648.071 637.241C648.362 637.085 648.579 636.87 648.721 636.597C648.867 636.32 648.94 636.002 648.94 635.643C648.94 635.281 648.867 634.965 648.721 634.695C648.579 634.422 648.362 634.21 648.071 634.061C647.78 633.908 647.411 633.832 646.963 633.832H645.408V642.855H643.101ZM652.771 642.855V634.674H654.971V636.101H655.056C655.205 635.593 655.455 635.21 655.807 634.951C656.159 634.688 656.563 634.556 657.021 634.556C657.135 634.556 657.258 634.564 657.389 634.578C657.52 634.592 657.636 634.612 657.735 634.636V636.65C657.629 636.618 657.481 636.589 657.293 636.565C657.105 636.54 656.933 636.527 656.776 636.527C656.443 636.527 656.144 636.6 655.882 636.746C655.622 636.888 655.416 637.087 655.264 637.342C655.115 637.598 655.04 637.893 655.04 638.227V642.855H652.771ZM662.224 643.015C661.397 643.015 660.681 642.839 660.078 642.488C659.478 642.133 659.014 641.639 658.687 641.007C658.361 640.371 658.197 639.635 658.197 638.797C658.197 637.951 658.361 637.213 658.687 636.581C659.014 635.945 659.478 635.451 660.078 635.1C660.681 634.745 661.397 634.567 662.224 634.567C663.052 634.567 663.766 634.745 664.366 635.1C664.969 635.451 665.435 635.945 665.761 636.581C666.088 637.213 666.251 637.951 666.251 638.797C666.251 639.635 666.088 640.371 665.761 641.007C665.435 641.639 664.969 642.133 664.366 642.488C663.766 642.839 663.052 643.015 662.224 643.015ZM662.235 641.257C662.611 641.257 662.926 641.151 663.178 640.938C663.43 640.721 663.62 640.426 663.748 640.054C663.879 639.681 663.945 639.256 663.945 638.781C663.945 638.305 663.879 637.88 663.748 637.507C663.62 637.135 663.43 636.84 663.178 636.623C662.926 636.407 662.611 636.298 662.235 636.298C661.855 636.298 661.535 636.407 661.276 636.623C661.021 636.84 660.827 637.135 660.696 637.507C660.568 637.88 660.504 638.305 660.504 638.781C660.504 639.256 660.568 639.681 660.696 640.054C660.827 640.426 661.021 640.721 661.276 640.938C661.535 641.151 661.855 641.257 662.235 641.257ZM671.413 646.094C670.678 646.094 670.047 645.993 669.522 645.79C669 645.592 668.584 645.32 668.275 644.975C667.967 644.631 667.766 644.244 667.674 643.814L669.772 643.532C669.836 643.695 669.937 643.848 670.076 643.99C670.214 644.132 670.397 644.246 670.625 644.331C670.855 644.42 671.136 644.464 671.466 644.464C671.96 644.464 672.366 644.343 672.686 644.102C673.009 643.864 673.171 643.464 673.171 642.903V641.407H673.075C672.975 641.634 672.826 641.849 672.627 642.051C672.429 642.254 672.173 642.419 671.86 642.547C671.548 642.674 671.175 642.738 670.742 642.738C670.127 642.738 669.568 642.596 669.064 642.312C668.563 642.025 668.164 641.586 667.865 640.996C667.571 640.403 667.423 639.654 667.423 638.749C667.423 637.822 667.574 637.048 667.876 636.426C668.178 635.805 668.579 635.339 669.08 635.031C669.584 634.722 670.136 634.567 670.736 634.567C671.195 634.567 671.578 634.645 671.887 634.801C672.196 634.954 672.445 635.146 672.633 635.377C672.824 635.604 672.972 635.828 673.075 636.048H673.16V634.674H675.413V642.935C675.413 643.631 675.243 644.214 674.902 644.683C674.561 645.151 674.089 645.503 673.485 645.737C672.885 645.975 672.194 646.094 671.413 646.094ZM671.461 641.034C671.827 641.034 672.136 640.943 672.388 640.762C672.643 640.577 672.839 640.315 672.974 639.974C673.112 639.629 673.181 639.217 673.181 638.738C673.181 638.259 673.114 637.843 672.979 637.491C672.844 637.136 672.649 636.861 672.393 636.666C672.137 636.471 671.827 636.373 671.461 636.373C671.088 636.373 670.774 636.474 670.518 636.676C670.262 636.875 670.069 637.152 669.937 637.507C669.806 637.863 669.74 638.273 669.74 638.738C669.74 639.21 669.806 639.619 669.937 639.963C670.072 640.304 670.266 640.569 670.518 640.757C670.774 640.941 671.088 641.034 671.461 641.034ZM677.219 642.855V634.674H679.419V636.101H679.504C679.653 635.593 679.904 635.21 680.255 634.951C680.607 634.688 681.012 634.556 681.47 634.556C681.583 634.556 681.706 634.564 681.837 634.578C681.969 634.592 682.084 634.612 682.184 634.636V636.65C682.077 636.618 681.93 636.589 681.741 636.565C681.553 636.54 681.381 636.527 681.225 636.527C680.891 636.527 680.593 636.6 680.33 636.746C680.071 636.888 679.865 637.087 679.712 637.342C679.563 637.598 679.488 637.893 679.488 638.227V642.855H677.219ZM686.705 643.015C685.863 643.015 685.138 642.845 684.531 642.504C683.928 642.159 683.462 641.673 683.136 641.044C682.809 640.412 682.646 639.665 682.646 638.802C682.646 637.96 682.809 637.222 683.136 636.586C683.462 635.95 683.922 635.455 684.515 635.1C685.112 634.745 685.811 634.567 686.614 634.567C687.154 634.567 687.656 634.654 688.121 634.828C688.59 634.999 688.999 635.256 689.347 635.6C689.698 635.945 689.972 636.378 690.167 636.9C690.362 637.419 690.46 638.026 690.46 638.722V639.345H683.551V637.939H688.324C688.324 637.612 688.253 637.323 688.111 637.071C687.969 636.819 687.772 636.621 687.52 636.479C687.271 636.334 686.982 636.261 686.651 636.261C686.307 636.261 686.001 636.341 685.735 636.501C685.472 636.657 685.266 636.868 685.117 637.135C684.968 637.397 684.892 637.69 684.888 638.013V639.35C684.888 639.755 684.963 640.105 685.112 640.4C685.265 640.695 685.479 640.922 685.756 641.082C686.033 641.241 686.362 641.321 686.742 641.321C686.994 641.321 687.225 641.286 687.434 641.215C687.644 641.144 687.823 641.037 687.972 640.895C688.121 640.753 688.235 640.579 688.313 640.373L690.412 640.512C690.305 641.016 690.087 641.456 689.757 641.833C689.43 642.206 689.007 642.497 688.489 642.706C687.974 642.912 687.379 643.015 686.705 643.015ZM698.748 637.007L696.671 637.135C696.635 636.957 696.559 636.797 696.442 636.655C696.325 636.51 696.17 636.394 695.978 636.309C695.79 636.22 695.565 636.176 695.302 636.176C694.95 636.176 694.654 636.25 694.412 636.4C694.171 636.545 694.05 636.74 694.05 636.985C694.05 637.181 694.128 637.346 694.284 637.481C694.441 637.616 694.709 637.724 695.089 637.806L696.57 638.104C697.365 638.267 697.958 638.53 698.349 638.892C698.739 639.255 698.935 639.73 698.935 640.32C698.935 640.856 698.777 641.327 698.461 641.732C698.148 642.136 697.718 642.452 697.172 642.68C696.628 642.903 696.001 643.015 695.291 643.015C694.208 643.015 693.345 642.79 692.702 642.339C692.063 641.884 691.689 641.266 691.578 640.485L693.81 640.368C693.878 640.698 694.041 640.95 694.3 641.124C694.56 641.295 694.892 641.38 695.297 641.38C695.694 641.38 696.014 641.304 696.255 641.151C696.5 640.995 696.625 640.794 696.628 640.549C696.625 640.343 696.538 640.174 696.367 640.043C696.197 639.908 695.934 639.805 695.579 639.734L694.162 639.452C693.363 639.292 692.768 639.015 692.377 638.621C691.99 638.227 691.797 637.724 691.797 637.113C691.797 636.588 691.939 636.135 692.223 635.755C692.511 635.375 692.914 635.082 693.432 634.876C693.954 634.67 694.565 634.567 695.265 634.567C696.298 634.567 697.111 634.786 697.704 635.222C698.301 635.659 698.649 636.254 698.748 637.007ZM707.171 637.007L705.094 637.135C705.058 636.957 704.982 636.797 704.865 636.655C704.747 636.51 704.593 636.394 704.401 636.309C704.213 636.22 703.987 636.176 703.725 636.176C703.373 636.176 703.077 636.25 702.835 636.4C702.594 636.545 702.473 636.74 702.473 636.985C702.473 637.181 702.551 637.346 702.707 637.481C702.864 637.616 703.132 637.724 703.512 637.806L704.992 638.104C705.788 638.267 706.381 638.53 706.772 638.892C707.162 639.255 707.358 639.73 707.358 640.32C707.358 640.856 707.199 641.327 706.883 641.732C706.571 642.136 706.141 642.452 705.594 642.68C705.051 642.903 704.424 643.015 703.714 643.015C702.631 643.015 701.768 642.79 701.125 642.339C700.486 641.884 700.111 641.266 700.001 640.485L702.233 640.368C702.301 640.698 702.464 640.95 702.723 641.124C702.983 641.295 703.315 641.38 703.719 641.38C704.117 641.38 704.437 641.304 704.678 641.151C704.923 640.995 705.047 640.794 705.051 640.549C705.047 640.343 704.96 640.174 704.79 640.043C704.62 639.908 704.357 639.805 704.002 639.734L702.585 639.452C701.786 639.292 701.191 639.015 700.8 638.621C700.413 638.227 700.22 637.724 700.22 637.113C700.22 636.588 700.362 636.135 700.646 635.755C700.934 635.375 701.337 635.082 701.855 634.876C702.377 634.67 702.988 634.567 703.687 634.567C704.721 634.567 705.534 634.786 706.127 635.222C706.724 635.659 707.072 636.254 707.171 637.007Z" fill="white"/>
<line x1="617.974" y1="695.64" x2="617.974" y2="655.516" stroke="white" stroke-width="2"/>
<line x1="618.974" y1="694.64" x2="659.098" y2="694.64" stroke="white" stroke-width="2"/>
<line x1="660.098" y1="658.452" x2="660.098" y2="695.64" stroke="white" stroke-width="2"/>
<path d="M634.29 674.668C634.745 674.9 635.301 674.752 635.58 674.325L642.499 663.753C642.775 663.331 643.322 663.18 643.775 663.402L650.524 666.702C650.927 666.899 651.411 666.804 651.709 666.47L659.31 657.96C659.921 657.275 661.055 657.707 661.055 658.626V671.662C661.055 671.971 660.912 672.263 660.667 672.453L651.679 679.399C651.387 679.625 650.995 679.672 650.658 679.521L643.683 676.395C643.27 676.209 642.784 676.325 642.498 676.677L635.502 685.288C635.251 685.597 634.842 685.728 634.458 685.621L628.507 683.968C628.113 683.858 627.691 684 627.443 684.326L620.158 693.912C620.034 694.076 619.839 694.172 619.633 694.172C619.269 694.172 618.974 693.877 618.974 693.513V691.371C618.974 691.23 619.004 691.09 619.061 690.961L627.423 672.348C627.658 671.827 628.28 671.607 628.789 671.867L634.29 674.668Z" fill="white"/>
</svg>
