<svg width="528" height="528" viewBox="0 0 528 528" fill="none" xmlns="http://www.w3.org/2000/svg">
<path d="M352.114 469.733C325.244 481.877 295.419 488.638 264.014 488.638C237.349 488.638 211.823 483.762 188.276 474.857L193.853 460.923C215.675 469.14 239.319 473.638 264.014 473.638C293.176 473.638 320.874 467.369 345.834 456.106L352.114 469.733ZM64.9451 269.233C64.8996 270.983 64.8767 272.739 64.8767 274.5C64.8767 314.748 76.819 352.206 97.3503 383.528L84.5027 391.295C62.6034 357.705 49.8767 317.589 49.8767 274.5C49.8767 272.423 49.9068 270.353 49.9656 268.29L64.9451 269.233ZM476.952 251.706C477.744 259.196 478.152 266.801 478.152 274.5C478.152 313.639 467.651 350.324 449.314 381.895L436.13 374.717C453.307 345.28 463.152 311.041 463.152 274.5C463.152 267.519 462.792 260.621 462.091 253.824L476.952 251.706ZM175.555 96.0383C138.677 114.353 108.283 143.764 88.738 179.902L75.7361 172.405C96.7824 133.674 129.431 102.163 169.016 82.5354L175.555 96.0383ZM343.484 75.594C385.456 92.3782 420.875 122.062 444.839 159.744L432.429 168.194C410.19 133.035 377.247 105.322 338.177 89.634L343.484 75.594Z" fill="#5E5E5E"/>
<path d="M427.356 168.36L449.345 154.858L450.044 180.652L427.356 168.36Z" fill="#5E5E5E"/>
<path d="M435.658 364.504L458.231 377.004L436.12 390.303L435.658 364.504Z" fill="#5E5E5E"/>
<path d="M202.872 458.266L192.381 481.84L177.211 460.968L202.872 458.266Z" fill="#5E5E5E"/>
<path d="M70.3047 275.74L44.5968 273.525L59.3686 252.369L70.3047 275.74Z" fill="#5E5E5E"/>
<path d="M174.859 102.944L163.679 79.689L189.409 81.6346L174.859 102.944Z" fill="#5E5E5E"/>
</svg>
