<svg width="90" height="73" viewBox="0 0 90 73" fill="none" xmlns="http://www.w3.org/2000/svg">
<path d="M87.8635 8.09108L60.9295 0.122282C60.324 -0.0574078 59.6795 -0.0378785 59.0818 0.173062L33.3358 9.34496C31.1678 10.1184 28.8124 10.1692 26.6092 9.4973L7.1172 3.5442C3.5781 2.4622 0 5.1106 0 8.8137V61.1257C0 62.4382 0.85547 63.5945 2.1094 63.9773L29.0544 72.2078C29.6677 72.3953 30.3239 72.3797 30.9255 72.1648L56.7065 62.9773C58.8432 62.2156 61.1674 62.1531 63.3432 62.7976L82.9212 68.5906C86.4524 69.6336 89.9954 66.989 89.9954 63.3094L89.9993 10.9504C89.9993 9.63014 89.133 8.46608 87.8635 8.09108ZM15.8015 37.0751C15.489 38.1728 14.4851 38.8876 13.3992 38.8876C13.1726 38.8876 12.9383 38.8563 12.7078 38.7899L9.34449 37.8251C8.01639 37.4423 7.25069 36.0595 7.62969 34.7313C8.00869 33.4031 9.39139 32.6375 10.7235 33.0165L14.0868 33.9813C15.4149 34.3641 16.1805 35.7469 15.8015 37.0751ZM29.8635 41.1103C29.5471 42.208 28.5471 42.9228 27.4612 42.9228C27.2346 42.9228 27.0003 42.8915 26.7698 42.8251L19.7386 40.8095C18.4105 40.4267 17.6448 39.0439 18.0238 37.7157C18.4066 36.3876 19.7894 35.6219 21.1176 36.0009L28.1488 38.0165C29.4769 38.3993 30.2425 39.7821 29.8635 41.1103ZM42.3475 40.1845L35.3787 42.4072C35.1248 42.4853 34.8709 42.5244 34.617 42.5244C33.5584 42.5244 32.574 41.8447 32.2342 40.7822C31.8162 39.4658 32.5389 38.0595 33.8553 37.6416L40.8241 35.4189C42.1405 35.0048 43.5468 35.7236 43.9647 37.04C44.3866 38.3564 43.66 39.7627 42.3436 40.1806L42.3475 40.1845ZM56.2855 35.7392L49.3167 37.958C49.0667 38.0361 48.8089 38.0752 48.5589 38.0752C47.5003 38.0752 46.5159 37.3955 46.1761 36.333C45.7581 35.0166 46.4847 33.6103 47.8011 33.1924L54.7699 30.9736C56.0824 30.5556 57.4887 31.2783 57.9105 32.5986C58.3285 33.915 57.6019 35.3213 56.2855 35.7392ZM72.0475 34.6337C71.7038 35.6884 70.7233 36.3642 69.6725 36.3642C69.4147 36.3642 69.1569 36.3251 68.8991 36.2392L64.4694 34.8017C63.8209 34.5908 63.1413 34.458 62.4616 34.4111C61.0827 34.3134 60.0475 33.1142 60.1491 31.7392C60.2467 30.3603 61.4655 29.3212 62.821 29.4267C63.9069 29.5048 64.9812 29.7157 66.0124 30.0517L70.4421 31.4892C71.7546 31.915 72.4733 33.3251 72.0476 34.6376L72.0475 34.6337ZM82.3485 37.9775C82.0048 39.0322 81.0243 39.708 79.9735 39.708C79.7157 39.708 79.4579 39.6689 79.2001 39.583L75.872 38.5049C74.5595 38.0791 73.8408 36.669 74.2665 35.3565C74.6922 34.044 76.1063 33.3253 77.4149 33.751L80.743 34.8291C82.0555 35.2549 82.7742 36.665 82.3485 37.9775Z" fill="#0D3A37"/>
</svg>
