<svg width="64" height="77" viewBox="0 0 64 77" fill="none" xmlns="http://www.w3.org/2000/svg">
<path d="M44.3058 44.3565C44.2204 48.1654 31.6334 57.5639 31.6334 57.5639C31.6334 57.5639 19.0429 48.1654 18.9575 44.3565C8.32603 45.3275 0 54.2646 0 65.1505C0 75.5504 7.59839 76.06 17.5462 76.06C18.6313 76.06 19.7435 76.0541 20.8793 76.0541H42.3815C43.5156 76.0541 44.6269 76.06 45.7129 76.06C55.6616 76.06 63.2642 75.5504 63.2642 65.1513C63.2642 54.2646 54.9381 45.3284 44.3058 44.3565Z" fill="black"/>
<path d="M31.6316 47.0854C34.4628 47.0854 38.6648 47.0854 42.1425 41.0395C44.7892 39.3925 45.0437 43.7366 47.033 43.2131C48.7781 40.0456 50.6193 31.5846 48.7054 26.6937H14.5587C15.1504 30.1386 16.502 33.8525 18.403 37.1547C21.5954 42.7005 26.3373 47.0854 31.6316 47.0854Z" fill="black"/>
<path d="M32.4451 47.0854C29.614 47.0854 25.4119 47.0854 21.9343 41.0395C19.2875 39.3925 17.3606 52.0916 15.3714 51.5681C13.6263 48.4007 12.6514 31.5846 14.5653 26.6937H49.5181C48.9264 30.1386 47.5748 33.8525 45.6738 37.1547C42.4814 42.7005 37.7395 47.0854 32.4451 47.0854Z" fill="black"/>
<path d="M13.7931 23.5617H49.4686C50.8596 23.5617 51.9853 22.4352 51.9853 21.045C51.9853 19.6547 50.8596 18.5291 49.4686 18.5291H48.7832C48.7832 11.8434 44.9557 6.05607 39.3746 3.22579L37.9531 11.2856C37.8398 11.9237 37.2855 12.3733 36.6592 12.3733C36.584 12.3733 36.5071 12.3674 36.4302 12.353C35.7144 12.2254 35.2378 11.5442 35.3645 10.8284L36.9871 1.62261C36.3787 0.649045 35.2986 0 34.0647 0H29.1969C27.9639 0 26.8847 0.649045 26.2753 1.62261L27.898 10.8284C28.0239 11.5442 27.5472 12.2254 26.8314 12.353C26.7545 12.3674 26.6776 12.3733 26.6024 12.3733C25.9753 12.3733 25.4201 11.9245 25.3077 11.2856L23.8871 3.22832C18.3059 6.05691 14.4793 11.8442 14.4793 18.5291H13.7922C12.402 18.5291 11.2772 19.6547 11.2772 21.045C11.278 22.4352 12.4037 23.5617 13.7931 23.5617Z" fill="black"/>
</svg>
