<svg width="97" height="97" viewBox="0 0 97 97" fill="none" xmlns="http://www.w3.org/2000/svg">
<path d="M82.0346 14.1516C63.3396 -4.64538 32.9486 -4.72737 14.1516 13.968C-4.64538 32.6634 -4.72738 63.054 13.968 81.851L14.1516 82.0346C32.8466 100.832 63.2376 100.914 82.0346 82.2182C100.832 63.5228 100.914 33.1322 82.2182 14.3352L82.0346 14.1516ZM48.0936 90.0926C24.8986 90.0926 6.09363 71.2876 6.09363 48.0926C6.09363 24.8976 24.8986 6.09263 48.0936 6.09263C71.2886 6.09263 90.0936 24.8976 90.0936 48.0926C90.0663 71.2766 71.2776 90.0656 48.0936 90.0926ZM57.0936 48.0926C57.0936 43.1199 53.0663 39.0926 48.0936 39.0926C43.1209 39.0926 39.0936 43.1199 39.0936 48.0926C39.0936 53.0653 43.1209 57.0926 48.0936 57.0926C53.0624 57.0848 57.0858 53.0614 57.0936 48.0926ZM48.0936 51.0926C46.4374 51.0926 45.0936 49.7488 45.0936 48.0926C45.0936 46.4364 46.4374 45.0926 48.0936 45.0926C49.7498 45.0926 51.0936 46.4364 51.0936 48.0926C51.0936 49.7488 49.7498 51.0926 48.0936 51.0926ZM41.7147 30.4446C45.2225 33.968 50.9178 33.9798 54.4417 30.472C54.4495 30.4642 54.4613 30.4524 54.4691 30.4446L64.4418 20.4246C65.6098 19.2488 65.6059 17.3504 64.4301 16.1824C64.1918 15.9441 63.9144 15.7488 63.6097 15.6043C53.7933 10.9246 42.3907 10.9246 32.5747 15.6043C31.0786 16.3191 30.4497 18.1121 31.1645 19.6043C31.3091 19.909 31.5044 20.1863 31.7427 20.4246L41.7147 30.4446ZM29.3357 48.7066C33.7693 46.4605 35.5427 41.0425 33.2966 36.6086C33.2888 36.5969 33.2849 36.5852 33.2771 36.5735L26.8318 23.9915C26.0779 22.5149 24.2693 21.9329 22.7927 22.6868C22.4919 22.8391 22.2185 23.0461 21.988 23.2883C14.5036 31.1828 10.98 42.0263 12.3942 52.8113C12.613 54.4558 14.1169 55.6082 15.7614 55.3933C16.0973 55.3504 16.4255 55.2488 16.7262 55.0925L29.3357 48.7066ZM42.8787 66.1206C42.1131 61.2104 37.5115 57.8472 32.6017 58.6128C32.5861 58.6167 32.5744 58.6167 32.5627 58.6206L18.6057 60.8667C16.969 61.1285 15.8557 62.6675 16.1213 64.3042C16.176 64.6402 16.2853 64.9605 16.4455 65.2574C21.6369 74.8121 30.8635 81.5154 41.5545 83.4994C43.1834 83.8001 44.7498 82.722 45.0467 81.0932C45.1092 80.7611 45.1131 80.4213 45.0623 80.0854L42.8787 66.1206ZM77.5817 60.8667L63.6287 58.6245C58.7225 57.8355 54.1053 61.1753 53.3167 66.0854C53.3128 66.1011 53.3128 66.1128 53.3089 66.1245L51.1292 80.0895C50.8714 81.7262 51.9925 83.2614 53.6292 83.5153C53.9652 83.5661 54.305 83.5622 54.637 83.4997C65.328 81.5153 74.555 74.8122 79.746 65.2577C80.5351 63.8007 79.9921 61.9804 78.5351 61.1913C78.2382 61.0311 77.9177 60.9214 77.5817 60.8667ZM82.3317 36.9687C80.6833 31.8554 77.9059 27.1835 74.1989 23.2927C73.0583 22.0935 71.1598 22.0466 69.9567 23.1873C69.7106 23.4216 69.5075 23.6951 69.3552 23.9919L62.9099 36.5699C60.6443 40.9957 62.3903 46.4176 66.8161 48.6829C66.8278 48.6908 66.8395 48.6947 66.8512 48.7025L79.4602 55.0931C80.9368 55.8431 82.7414 55.2532 83.4914 53.7767C83.6438 53.472 83.7453 53.1478 83.7922 52.8118C84.5031 47.4876 84.0036 42.0747 82.3317 36.9687Z" fill="#0D3A37"/>
</svg>
